<svg id="svg" version="1.1" xmlns="http://www.w3.org/2000/svg" xmlns:xlink="http://www.w3.org/1999/xlink" width="400" height="129.54669579464775" viewBox="0, 0, 400,129.54669579464775"><g id="svgg"><path id="path0" d="M33.742 33.742 C 32.817 34.668,33.479 36.167,34.814 36.167 C 35.330 36.167,35.552 36.070,35.821 35.728 C 36.604 34.732,35.978 33.333,34.750 33.333 C 34.337 33.333,34.025 33.460,33.742 33.742 M47.742 33.742 C 46.844 34.641,47.478 36.167,48.750 36.167 C 49.563 36.167,50.167 35.563,50.167 34.750 C 50.167 33.937,49.563 33.333,48.750 33.333 C 48.337 33.333,48.025 33.460,47.742 33.742 M208.000 58.417 L 208.000 77.500 211.667 77.500 L 215.333 77.500 215.333 58.417 L 215.333 39.333 211.667 39.333 L 208.000 39.333 208.000 58.417 M19.564 39.819 C 17.458 40.775,17.227 43.806,19.159 45.121 C 21.937 47.012,25.219 43.235,23.044 40.651 C 22.148 39.585,20.792 39.261,19.564 39.819 M33.667 39.766 C 31.217 40.827,31.139 44.121,33.535 45.350 C 35.748 46.484,38.318 44.194,37.589 41.737 C 37.072 39.997,35.248 39.081,33.667 39.766 M47.576 39.813 C 46.127 40.472,45.424 42.017,45.910 43.479 C 46.553 45.416,48.725 46.221,50.341 45.121 C 53.339 43.080,50.860 38.322,47.576 39.813 M61.583 39.815 C 59.110 40.957,59.082 44.092,61.535 45.350 C 63.085 46.144,65.280 45.091,65.597 43.401 C 66.087 40.790,63.834 38.776,61.583 39.815 M115.114 40.275 C 115.051 40.337,115.000 43.376,115.000 47.028 C 115.000 51.619,114.945 53.667,114.822 53.667 C 114.724 53.667,114.397 53.478,114.096 53.248 C 111.736 51.448,106.547 51.424,103.333 53.199 C 93.992 58.355,95.185 73.717,105.186 77.066 C 108.549 78.192,112.113 77.931,114.104 76.412 C 114.860 75.836,115.000 75.889,115.000 76.750 L 115.000 77.500 118.751 77.500 L 122.501 77.500 122.459 58.875 L 122.417 40.250 118.823 40.205 C 116.846 40.181,115.177 40.212,115.114 40.275 M32.500 50.656 C 27.768 52.100,27.331 58.742,31.833 60.797 C 35.902 62.654,40.396 58.668,39.091 54.359 C 38.233 51.525,35.213 49.828,32.500 50.656 M47.814 50.720 C 42.093 52.858,43.585 61.318,49.667 61.223 C 55.104 61.138,56.800 53.537,51.937 51.047 C 50.905 50.518,48.800 50.352,47.814 50.720 M136.250 51.999 C 122.692 54.024,122.349 74.718,135.828 77.491 C 139.886 78.326,144.600 77.577,147.509 75.634 C 148.413 75.030,150.059 73.373,149.959 73.167 C 149.817 72.877,145.319 68.833,145.138 68.834 C 145.016 68.834,144.767 69.065,144.583 69.347 C 142.008 73.311,133.667 71.621,133.667 67.135 L 133.667 66.503 142.625 66.460 L 151.583 66.417 151.537 64.667 C 151.304 55.967,144.948 50.701,136.250 51.999 M189.500 52.022 C 176.931 54.075,175.593 73.249,187.750 77.099 C 192.883 78.725,198.953 77.644,202.208 74.524 C 203.640 73.151,203.720 73.393,201.016 70.937 C 198.391 68.554,198.569 68.642,197.957 69.410 C 194.902 73.238,187.306 71.743,187.113 67.275 L 187.083 66.583 196.000 66.500 L 204.917 66.417 204.884 64.333 C 204.753 55.917,198.126 50.613,189.500 52.022 M229.833 51.990 C 220.491 53.728,215.957 64.262,221.186 72.081 C 227.078 80.889,241.354 79.152,244.734 69.215 C 247.991 59.638,239.775 50.140,229.833 51.990 M259.959 52.002 C 259.160 52.206,257.462 53.060,257.178 53.403 C 256.762 53.904,256.500 53.716,256.500 52.917 L 256.500 52.167 252.833 52.167 L 249.167 52.167 249.167 70.750 L 249.167 89.333 252.833 89.333 L 256.500 89.333 256.500 82.667 C 256.500 75.237,256.434 75.601,257.634 76.421 C 259.779 77.886,263.602 78.166,266.722 77.085 C 276.454 73.714,277.456 58.828,268.311 53.487 C 266.084 52.186,262.054 51.470,259.959 52.002 M287.667 52.011 C 275.064 54.221,273.738 73.233,285.917 77.098 C 291.112 78.747,297.409 77.571,300.561 74.363 C 301.760 73.143,301.882 73.434,299.083 70.847 L 296.750 68.689 296.192 69.348 C 293.798 72.172,289.221 72.460,286.634 69.949 C 285.858 69.196,285.121 67.706,285.197 67.044 L 285.250 66.583 294.232 66.540 L 303.214 66.497 303.118 64.374 C 302.729 55.838,296.098 50.533,287.667 52.011 M317.830 52.006 C 316.749 52.263,315.683 52.812,314.947 53.490 C 314.090 54.279,314.000 54.238,314.000 53.052 L 314.000 52.160 310.292 52.205 L 306.583 52.250 306.541 64.875 L 306.498 77.500 310.242 77.500 L 313.985 77.500 314.038 69.292 C 314.098 60.037,314.093 60.073,315.372 58.795 C 316.610 57.557,318.885 57.086,320.875 57.655 C 321.494 57.832,322.000 57.963,322.000 57.947 C 322.000 57.930,322.222 56.717,322.493 55.250 C 323.045 52.265,323.059 52.338,321.841 51.999 C 321.140 51.805,318.661 51.809,317.830 52.006 M371.250 52.066 C 367.459 53.094,365.088 55.186,364.400 58.112 C 363.288 62.843,366.597 66.299,373.729 67.856 C 376.726 68.510,377.805 69.539,376.625 70.618 C 374.781 72.304,371.772 71.733,369.129 69.194 C 368.696 68.777,368.304 68.470,368.258 68.510 C 368.213 68.550,367.125 69.629,365.840 70.908 L 363.503 73.232 363.871 73.624 C 370.534 80.716,383.662 78.270,383.694 69.929 C 383.708 66.511,381.655 64.428,376.833 62.964 C 376.054 62.727,374.652 62.300,373.717 62.014 C 371.637 61.377,371.000 60.907,371.000 60.008 C 371.000 57.502,374.898 57.589,377.708 60.157 C 378.881 61.229,378.558 61.364,381.223 58.693 L 383.525 56.387 382.638 55.588 C 379.299 52.585,374.645 51.146,371.250 52.066 M152.245 52.625 C 152.308 52.877,152.570 53.571,152.828 54.167 C 153.086 54.762,153.688 56.188,154.166 57.333 C 155.195 59.802,157.045 64.208,157.594 65.500 C 157.808 66.004,158.580 67.842,159.310 69.583 C 160.040 71.325,161.078 73.800,161.618 75.083 L 162.599 77.417 165.014 77.463 L 167.429 77.509 169.151 73.379 C 170.099 71.108,171.049 68.837,171.264 68.333 C 171.918 66.798,175.494 58.196,176.253 56.333 C 176.645 55.371,177.161 54.143,177.400 53.604 C 178.084 52.060,178.331 52.167,174.083 52.167 C 172.021 52.167,170.333 52.198,170.333 52.236 C 170.333 52.412,165.508 65.672,165.298 66.072 C 164.940 66.756,164.532 65.767,160.160 53.625 L 159.635 52.167 155.883 52.167 L 152.131 52.167 152.245 52.625 M336.114 52.275 C 335.933 52.456,335.982 66.947,336.170 68.857 C 336.701 74.235,338.418 76.689,342.238 77.529 C 345.619 78.273,349.331 77.627,351.593 75.901 C 352.544 75.175,352.500 75.150,352.500 76.417 L 352.500 77.500 356.251 77.500 L 360.002 77.500 359.959 64.875 L 359.917 52.250 356.208 52.205 L 352.500 52.160 352.500 60.063 C 352.500 68.898,352.449 69.351,351.308 70.730 C 349.751 72.613,345.775 72.746,344.449 70.960 C 343.596 69.810,343.596 69.812,343.503 60.750 L 343.417 52.250 339.823 52.205 C 337.846 52.181,336.177 52.212,336.114 52.275 M20.166 53.654 C 16.725 54.715,17.238 59.684,20.786 59.663 C 23.849 59.645,24.889 55.380,22.167 54.003 C 21.409 53.619,20.687 53.493,20.166 53.654 M62.166 53.662 C 60.059 54.270,59.160 56.175,60.119 57.999 C 61.638 60.891,65.667 59.836,65.667 56.545 C 65.667 54.781,63.753 53.205,62.166 53.662 M12.098 55.518 C 11.372 56.090,11.517 57.459,12.351 57.905 C 13.506 58.524,14.741 57.485,14.330 56.240 C 13.982 55.185,12.947 54.850,12.098 55.518 M69.868 55.341 C 69.657 55.426,69.375 55.758,69.240 56.081 C 68.523 57.798,70.914 58.949,71.768 57.298 C 72.414 56.049,71.205 54.804,69.868 55.341 M112.492 58.095 C 116.048 60.031,117.095 65.658,114.617 69.522 C 111.673 74.113,105.786 72.415,104.597 66.632 C 103.397 60.794,108.103 55.706,112.492 58.095 M263.686 58.110 C 267.735 60.314,268.405 67.184,264.904 70.602 C 259.779 75.606,253.017 67.733,256.505 60.824 C 257.980 57.901,261.121 56.714,263.686 58.110 M140.854 58.257 C 142.117 58.702,142.791 59.291,143.361 60.447 C 144.078 61.905,144.284 61.845,138.739 61.794 L 133.917 61.750 133.862 61.368 C 133.558 59.218,137.987 57.247,140.854 58.257 M194.314 58.275 C 195.426 58.635,196.330 59.426,196.819 60.468 C 197.485 61.892,197.683 61.833,192.167 61.833 C 186.728 61.833,186.909 61.880,187.463 60.628 C 188.412 58.482,191.583 57.393,194.314 58.275 M234.538 58.473 C 237.003 59.682,238.496 62.975,237.997 66.101 C 236.820 73.469,227.670 73.473,226.502 66.106 C 225.650 60.733,230.245 56.368,234.538 58.473 M292.469 58.271 C 293.604 58.638,294.390 59.325,294.925 60.418 C 295.650 61.901,295.869 61.833,290.333 61.833 C 284.894 61.833,285.076 61.880,285.630 60.628 C 286.577 58.487,289.750 57.393,292.469 58.271 M33.022 66.178 C 27.878 67.201,27.075 74.268,31.859 76.415 C 36.072 78.306,40.488 74.152,38.988 69.709 C 38.168 67.282,35.478 65.689,33.022 66.178 M48.557 66.170 C 45.093 66.873,43.181 70.744,44.747 73.884 C 47.252 78.906,54.833 77.114,54.833 71.500 C 54.833 68.202,51.692 65.534,48.557 66.170 M19.583 67.929 C 16.992 69.276,17.280 72.760,20.056 73.661 C 22.052 74.309,24.233 72.103,23.669 70.007 C 23.182 68.201,21.098 67.141,19.583 67.929 M61.371 68.010 C 60.154 68.628,59.472 70.158,59.826 71.471 C 60.537 74.113,64.113 74.560,65.337 72.159 C 66.669 69.549,63.946 66.701,61.371 68.010 M327.083 68.987 C 321.700 70.486,322.662 77.921,328.233 77.869 C 332.354 77.830,334.432 73.097,331.568 70.275 C 330.440 69.164,328.475 68.600,327.083 68.987 M12.400 69.405 C 11.087 69.976,11.552 72.167,12.985 72.167 C 14.514 72.167,14.975 69.987,13.570 69.401 C 12.913 69.126,13.041 69.126,12.400 69.405 M69.897 69.406 C 68.962 69.813,68.808 71.194,69.626 71.837 C 70.835 72.788,72.476 71.403,71.766 70.030 C 71.575 69.661,70.672 69.081,70.433 69.173 C 70.424 69.177,70.183 69.281,69.897 69.406 M19.667 81.946 C 17.219 83.001,17.169 86.404,19.583 87.518 C 20.820 88.089,22.042 87.816,22.969 86.760 C 25.043 84.398,22.517 80.716,19.667 81.946 M33.562 81.996 C 31.143 83.072,31.231 86.542,33.703 87.574 C 34.896 88.073,36.163 87.730,37.058 86.666 C 39.070 84.276,36.414 80.728,33.562 81.996 M47.576 81.980 C 45.563 82.894,45.128 85.554,46.758 86.985 C 49.047 88.994,52.177 87.020,51.597 83.932 C 51.284 82.262,49.191 81.246,47.576 81.980 M61.583 81.982 C 59.110 83.123,59.082 86.258,61.535 87.516 C 62.950 88.242,64.915 87.462,65.489 85.947 C 66.451 83.409,63.963 80.883,61.583 81.982 M33.742 91.576 C 32.640 92.679,33.856 94.514,35.290 93.911 C 36.734 93.304,36.313 91.167,34.750 91.167 C 34.337 91.167,34.025 91.293,33.742 91.576 M47.742 91.576 C 46.640 92.679,47.856 94.514,49.290 93.911 C 50.734 93.304,50.313 91.167,48.750 91.167 C 48.337 91.167,48.025 91.293,47.742 91.576 " stroke="none" fill="#060705" fill-rule="evenodd"></path><path id="path1" d="M0.000 64.750 L 0.000 129.500 200.000 129.500 L 400.000 129.500 400.000 64.750 L 400.000 0.000 200.000 0.000 L 0.000 0.000 0.000 64.750 M36.013 33.654 C 37.209 34.850,36.033 36.790,34.337 36.418 C 32.358 35.983,32.716 33.167,34.750 33.167 C 35.385 33.167,35.614 33.255,36.013 33.654 M50.013 33.654 C 51.275 34.916,49.864 36.921,48.119 36.345 C 46.314 35.749,46.827 33.167,48.750 33.167 C 49.385 33.167,49.614 33.255,50.013 33.654 M215.626 58.378 L 215.668 77.673 211.709 77.628 L 207.750 77.583 207.707 58.500 C 207.683 48.004,207.700 39.322,207.745 39.205 C 207.807 39.041,208.691 39.004,211.704 39.039 L 215.583 39.083 215.626 58.378 M22.655 39.909 C 25.111 41.611,24.175 45.425,21.215 45.775 C 17.991 46.157,16.206 42.420,18.548 40.190 C 19.568 39.220,21.473 39.089,22.655 39.909 M36.597 39.866 C 39.103 41.583,38.204 45.421,35.214 45.776 C 31.961 46.161,30.196 42.456,32.554 40.190 C 33.517 39.265,35.489 39.107,36.597 39.866 M49.718 39.511 C 52.696 40.270,52.791 44.663,49.850 45.644 C 47.618 46.389,45.500 44.898,45.500 42.583 C 45.500 40.281,47.376 38.915,49.718 39.511 M63.750 39.516 C 66.103 40.155,66.796 43.227,64.973 44.939 C 62.899 46.885,59.438 45.413,59.438 42.583 C 59.438 40.336,61.463 38.895,63.750 39.516 M122.626 40.138 C 122.792 40.243,122.826 44.112,122.792 58.927 L 122.750 77.583 118.750 77.583 L 114.750 77.583 114.698 76.954 L 114.646 76.325 114.155 76.675 C 111.799 78.353,107.275 78.406,103.833 76.795 C 94.403 72.384,94.192 57.557,103.491 52.836 C 106.829 51.142,112.081 51.293,114.375 53.149 C 114.652 53.373,114.667 53.050,114.667 46.804 C 114.667 43.184,114.717 40.172,114.778 40.111 C 114.936 39.953,122.374 39.978,122.626 40.138 M36.434 50.845 C 39.295 52.201,40.440 55.517,39.033 58.374 C 37.333 61.828,32.739 62.565,29.993 59.824 C 25.509 55.350,30.694 48.123,36.434 50.845 M51.580 50.628 C 56.348 52.489,56.290 59.447,51.493 61.127 C 48.304 62.243,44.992 60.567,44.062 57.367 C 42.792 52.999,47.300 48.958,51.580 50.628 M142.547 52.102 C 146.772 53.155,149.761 55.954,151.181 60.186 C 151.685 61.688,152.145 65.399,151.932 66.247 L 151.827 66.667 142.913 66.667 L 134.000 66.667 134.000 67.217 C 134.000 71.445,140.999 72.922,144.171 69.364 C 145.176 68.237,145.007 68.171,147.895 70.821 C 150.726 73.420,150.588 73.091,149.377 74.361 C 146.781 77.082,143.501 78.158,138.429 77.951 C 130.432 77.624,125.645 72.652,125.654 64.682 C 125.664 55.427,133.245 49.782,142.547 52.102 M195.743 52.030 C 201.630 53.486,205.139 58.072,205.222 64.417 L 205.250 66.583 196.271 66.626 L 187.291 66.670 187.404 67.376 C 188.110 71.789,195.407 72.952,197.855 69.042 C 198.041 68.744,198.329 68.500,198.495 68.500 C 198.851 68.500,203.667 72.935,203.667 73.263 C 203.667 74.136,199.885 76.862,198.031 77.325 C 197.647 77.421,197.015 77.590,196.625 77.701 C 195.265 78.087,189.792 77.975,188.333 77.531 C 183.223 75.976,180.139 72.579,179.247 67.520 C 177.430 57.227,185.628 49.529,195.743 52.030 M235.667 52.035 C 245.812 54.459,249.270 67.186,241.728 74.345 C 235.563 80.196,224.773 78.856,220.591 71.719 C 214.457 61.252,223.705 49.177,235.667 52.035 M265.498 52.105 C 277.798 55.283,278.283 73.724,266.167 77.512 C 264.571 78.011,260.806 78.094,259.833 77.651 C 259.037 77.289,257.480 76.655,257.127 76.549 C 256.856 76.468,256.834 76.881,256.794 83.023 L 256.750 89.583 252.833 89.583 L 248.917 89.583 248.874 70.844 C 248.841 55.962,248.875 52.077,249.041 51.971 C 249.283 51.817,256.177 51.784,256.570 51.934 C 256.738 51.999,256.833 52.239,256.833 52.601 C 256.833 53.273,256.835 53.273,257.628 52.780 C 259.721 51.479,262.239 51.263,265.498 52.105 M293.833 52.031 C 299.726 53.405,303.306 58.045,303.389 64.417 L 303.417 66.583 294.458 66.626 L 285.500 66.670 285.504 67.126 C 285.540 71.666,293.437 72.979,296.116 68.891 C 296.256 68.676,296.501 68.500,296.658 68.500 C 297.005 68.500,301.833 72.928,301.833 73.246 C 301.833 74.128,298.067 76.850,296.187 77.328 C 295.855 77.412,295.283 77.563,294.917 77.662 C 293.863 77.948,289.916 78.067,288.376 77.860 C 281.711 76.960,277.508 72.274,277.216 65.417 C 276.813 55.944,284.401 49.832,293.833 52.031 M322.369 51.949 C 323.451 52.334,323.448 51.870,322.415 57.625 C 322.300 58.270,322.106 58.296,320.806 57.839 C 319.058 57.224,316.738 57.751,315.596 59.022 C 314.425 60.323,314.447 60.149,314.343 69.333 L 314.250 77.583 310.333 77.583 L 306.417 77.583 306.374 64.844 C 306.340 54.762,306.375 52.077,306.541 51.971 C 306.783 51.818,313.398 51.788,313.958 51.938 C 314.276 52.023,314.333 52.152,314.333 52.777 L 314.333 53.516 315.103 52.986 C 317.113 51.603,320.167 51.168,322.369 51.949 M375.917 51.846 C 376.192 51.929,376.844 52.109,377.366 52.244 C 379.032 52.677,383.833 55.704,383.833 56.321 C 383.833 56.664,378.809 61.397,378.603 61.249 C 378.476 61.158,377.896 60.678,377.314 60.182 C 375.094 58.296,373.076 57.813,371.929 58.895 C 370.510 60.233,371.591 61.456,374.804 62.145 C 380.747 63.419,383.795 65.867,383.969 69.503 C 384.380 78.087,371.698 81.128,364.213 74.240 L 363.083 73.201 365.500 70.767 C 368.260 67.988,368.177 68.019,369.557 69.249 C 371.975 71.404,374.582 71.949,376.240 70.645 C 377.452 69.692,376.211 68.410,373.757 68.080 C 366.101 67.052,361.775 61.188,364.872 56.037 C 366.804 52.823,372.276 50.747,375.917 51.846 M159.712 52.042 C 160.020 52.275,160.326 53.057,162.996 60.417 C 164.026 63.258,164.918 65.636,164.977 65.701 C 165.088 65.821,165.626 64.404,168.409 56.667 C 169.282 54.237,170.125 52.156,170.281 52.042 C 170.607 51.801,177.763 51.741,178.132 51.975 C 178.373 52.128,178.376 52.119,175.502 59.000 C 174.564 61.246,173.550 63.683,173.249 64.417 C 172.947 65.150,172.010 67.400,171.165 69.417 C 170.320 71.433,169.294 73.904,168.885 74.908 C 168.476 75.911,168.033 76.942,167.900 77.199 L 167.658 77.667 165.083 77.667 C 162.594 77.667,162.500 77.654,162.268 77.292 C 161.527 76.131,151.649 52.114,151.858 51.981 C 152.235 51.743,159.389 51.798,159.712 52.042 M343.511 52.006 C 343.823 52.173,343.833 52.441,343.833 60.304 C 343.833 71.537,343.956 71.917,347.583 71.917 C 351.847 71.917,352.167 71.087,352.167 60.005 L 352.167 52.039 352.542 51.938 C 353.102 51.788,359.717 51.818,359.959 51.971 C 360.125 52.077,360.160 54.762,360.126 64.844 L 360.083 77.583 356.167 77.583 L 352.250 77.583 352.167 76.667 C 352.121 76.162,352.026 75.838,351.957 75.945 C 351.340 76.894,348.434 77.860,345.897 77.958 C 340.329 78.173,337.369 76.276,336.259 71.781 C 335.638 69.263,335.359 52.665,335.929 52.095 C 336.244 51.780,342.941 51.701,343.511 52.006 M22.216 53.725 C 24.402 54.638,24.738 57.766,22.806 59.210 C 20.450 60.971,17.346 59.315,17.531 56.397 C 17.675 54.146,20.022 52.808,22.216 53.725 M64.332 53.809 C 66.421 54.929,66.591 58.103,64.626 59.303 C 61.279 61.348,57.681 57.439,60.235 54.531 C 61.158 53.480,63.085 53.140,64.332 53.809 M13.901 55.190 C 14.130 55.294,14.439 55.635,14.587 55.948 C 15.376 57.611,13.279 59.107,11.846 57.902 C 10.310 56.609,12.030 54.338,13.901 55.190 M71.702 55.483 C 72.896 56.550,72.157 58.250,70.500 58.250 C 69.821 58.250,69.593 58.168,69.216 57.792 C 68.169 56.744,68.971 55.000,70.500 55.000 C 70.994 55.000,71.298 55.122,71.702 55.483 M108.761 57.982 C 104.579 59.454,103.368 66.652,106.695 70.262 C 109.259 73.043,112.817 72.348,114.719 68.693 C 117.516 63.320,113.600 56.279,108.761 57.982 M259.850 57.992 C 255.676 59.645,254.539 66.656,257.860 70.259 C 261.579 74.294,267.131 70.616,266.794 64.341 C 266.552 59.828,263.125 56.694,259.850 57.992 M136.844 58.475 C 135.540 59.021,133.767 60.989,134.193 61.416 C 134.243 61.465,136.353 61.485,138.884 61.461 L 143.484 61.417 143.148 60.667 C 142.217 58.586,139.136 57.515,136.844 58.475 M190.667 58.313 C 189.187 58.799,188.053 59.798,187.708 60.923 L 187.531 61.500 192.182 61.500 C 197.425 61.500,197.145 61.591,196.291 60.159 C 195.351 58.585,192.596 57.680,190.667 58.313 M230.512 58.460 C 227.958 59.463,226.329 62.815,226.828 66.042 C 227.950 73.291,236.728 73.154,237.667 65.873 C 238.296 60.992,234.385 56.941,230.512 58.460 M288.833 58.313 C 287.266 58.827,285.667 60.400,285.667 61.428 C 285.667 61.467,287.767 61.500,290.333 61.500 C 295.594 61.500,295.312 61.591,294.457 60.159 C 293.518 58.585,290.762 57.680,288.833 58.313 M35.700 66.159 C 41.796 68.200,40.418 77.036,34.000 77.059 C 27.561 77.082,26.120 68.278,32.218 66.172 C 33.366 65.776,34.540 65.771,35.700 66.159 M51.187 66.155 C 57.385 68.230,56.017 77.071,49.500 77.057 C 43.189 77.043,41.688 68.416,47.616 66.226 C 48.833 65.776,49.986 65.753,51.187 66.155 M22.124 67.756 C 24.330 68.678,24.757 71.529,22.930 73.133 C 20.295 75.446,16.400 72.622,17.754 69.381 C 18.407 67.818,20.452 67.058,22.124 67.756 M64.649 68.071 C 66.616 69.434,66.416 72.493,64.291 73.550 C 60.859 75.258,57.650 70.827,60.471 68.276 C 61.445 67.395,63.526 67.293,64.649 68.071 M330.018 69.020 C 333.282 70.210,334.297 74.113,331.976 76.548 C 329.692 78.946,324.965 78.304,323.591 75.410 C 321.751 71.531,325.817 67.488,330.018 69.020 M14.164 69.415 C 15.413 70.544,14.666 72.333,12.947 72.333 C 11.101 72.333,10.618 69.794,12.333 69.109 C 12.754 68.941,13.842 69.123,14.164 69.415 M71.764 69.513 C 72.905 70.585,72.124 72.317,70.495 72.328 C 69.548 72.335,69.064 72.002,68.816 71.173 C 68.323 69.530,70.486 68.312,71.764 69.513 M22.331 81.919 C 25.621 83.644,23.998 88.380,20.268 87.940 C 16.785 87.528,16.505 82.514,19.917 81.649 C 20.541 81.490,21.778 81.628,22.331 81.919 M36.250 81.873 C 39.593 83.551,38.013 88.382,34.266 87.939 C 31.056 87.561,30.456 82.417,33.545 81.759 C 33.749 81.715,34.067 81.646,34.250 81.606 C 34.687 81.509,35.828 81.661,36.250 81.873 M50.250 81.875 C 52.425 82.956,52.648 86.044,50.652 87.427 C 49.112 88.494,46.644 87.923,45.821 86.309 C 44.401 83.526,47.445 80.480,50.250 81.875 M64.399 81.977 C 67.057 83.484,66.256 87.583,63.234 87.939 C 61.073 88.195,59.445 86.828,59.434 84.750 C 59.422 82.331,62.244 80.754,64.399 81.977 M36.042 91.515 C 36.538 92.046,36.639 92.761,36.306 93.386 C 35.788 94.358,34.152 94.511,33.431 93.654 C 31.983 91.933,34.503 89.868,36.042 91.515 M50.042 91.515 C 51.070 92.616,50.329 94.169,48.777 94.164 C 47.825 94.161,47.691 94.102,47.282 93.505 C 46.101 91.778,48.603 89.974,50.042 91.515 " stroke="none" fill="#cbfb74" fill-rule="evenodd"></path><path id="path2" d="M33.654 33.654 C 33.293 34.015,33.167 34.299,33.167 34.750 C 33.167 36.154,34.920 36.874,35.885 35.866 C 36.851 34.859,36.139 33.167,34.750 33.167 C 34.299 33.167,34.015 33.293,33.654 33.654 M47.654 33.654 C 46.623 34.685,47.313 36.333,48.776 36.333 C 49.596 36.333,50.333 35.584,50.333 34.750 C 50.333 33.903,49.597 33.167,48.750 33.167 C 48.299 33.167,48.015 33.293,47.654 33.654 M35.758 33.742 C 36.273 34.258,36.301 35.118,35.821 35.728 C 35.042 36.719,33.333 36.047,33.333 34.750 C 33.333 34.337,33.460 34.025,33.742 33.742 C 34.025 33.460,34.337 33.333,34.750 33.333 C 35.163 33.333,35.475 33.460,35.758 33.742 M49.758 33.742 C 50.656 34.641,50.022 36.167,48.750 36.167 C 47.937 36.167,47.333 35.563,47.333 34.750 C 47.333 33.937,47.937 33.333,48.750 33.333 C 49.163 33.333,49.475 33.460,49.758 33.742 M207.911 39.372 C 207.867 39.488,207.850 48.133,207.874 58.583 L 207.918 77.583 207.959 58.458 L 208.000 39.333 211.667 39.333 L 215.333 39.333 215.333 58.417 C 215.333 71.081,215.390 77.500,215.501 77.500 C 215.612 77.500,215.654 71.096,215.626 58.375 L 215.583 39.250 211.788 39.205 C 208.841 39.170,207.974 39.208,207.911 39.372 M19.417 39.694 C 17.070 40.989,17.042 44.217,19.367 45.432 C 19.614 45.561,19.914 45.665,20.033 45.663 C 20.153 45.661,19.947 45.522,19.576 45.353 C 17.240 44.292,17.232 40.878,19.564 39.819 C 19.941 39.648,20.137 39.508,20.000 39.509 C 19.862 39.510,19.600 39.593,19.417 39.694 M21.924 39.813 C 24.378 40.928,24.324 44.322,21.833 45.401 C 21.512 45.540,21.352 45.657,21.477 45.660 C 22.553 45.691,23.872 44.026,23.892 42.612 C 23.910 41.229,22.576 39.489,21.508 39.504 C 21.366 39.506,21.553 39.645,21.924 39.813 M33.417 39.694 C 32.477 40.213,31.657 41.316,31.678 42.033 C 31.685 42.284,31.767 42.165,31.915 41.691 C 32.194 40.798,32.709 40.218,33.583 39.815 C 33.950 39.646,34.137 39.508,34.000 39.509 C 33.862 39.510,33.600 39.593,33.417 39.694 M35.917 39.815 C 36.791 40.218,37.306 40.798,37.585 41.691 C 37.739 42.186,37.815 42.292,37.822 42.023 C 37.848 41.123,36.349 39.492,35.508 39.504 C 35.366 39.506,35.550 39.646,35.917 39.815 M47.417 39.694 C 46.525 40.186,45.654 41.317,45.678 41.950 C 45.685 42.115,45.799 41.953,45.932 41.591 C 46.241 40.745,46.747 40.201,47.583 39.815 C 47.950 39.646,48.137 39.508,48.000 39.509 C 47.862 39.510,47.600 39.593,47.417 39.694 M49.917 39.815 C 51.112 40.367,51.667 41.244,51.667 42.583 C 51.667 43.923,51.112 44.800,49.917 45.352 C 49.550 45.521,49.347 45.661,49.467 45.663 C 51.061 45.690,52.438 42.807,51.598 41.200 C 51.193 40.423,50.026 39.494,49.469 39.504 C 49.349 39.506,49.550 39.646,49.917 39.815 M61.102 39.894 C 60.454 40.286,59.663 41.360,59.674 41.833 C 59.677 41.971,59.793 41.821,59.932 41.501 C 60.277 40.706,60.792 40.180,61.583 39.815 C 61.950 39.646,62.137 39.506,62.000 39.505 C 61.862 39.503,61.458 39.678,61.102 39.894 M63.936 39.819 C 65.312 40.444,66.026 42.190,65.522 43.698 C 65.354 44.202,65.360 44.222,65.586 43.926 C 66.537 42.683,65.029 39.486,63.500 39.504 C 63.362 39.506,63.559 39.648,63.936 39.819 M114.833 46.833 C 114.833 52.996,114.775 53.913,114.417 53.334 C 114.361 53.243,114.150 53.086,113.949 52.986 C 113.699 52.862,113.742 52.939,114.083 53.229 C 115.020 54.026,114.989 54.230,115.038 46.917 C 115.063 43.204,115.027 40.167,114.958 40.167 C 114.890 40.167,114.833 43.167,114.833 46.833 M122.459 52.208 C 122.482 58.831,122.520 67.250,122.544 70.917 C 122.568 74.583,122.605 69.165,122.627 58.875 C 122.649 48.585,122.610 40.167,122.542 40.167 C 122.473 40.167,122.435 45.585,122.459 52.208 M31.678 43.050 C 31.655 43.998,33.480 46.075,33.936 45.619 C 33.977 45.578,33.792 45.454,33.525 45.344 C 32.778 45.034,32.141 44.264,31.904 43.383 C 31.740 42.771,31.687 42.693,31.678 43.050 M37.613 43.370 C 37.450 44.172,36.772 44.968,35.924 45.353 C 35.553 45.522,35.352 45.661,35.477 45.663 C 36.373 45.677,37.931 43.978,37.799 43.131 C 37.752 42.835,37.711 42.888,37.613 43.370 M45.678 43.217 C 45.645 44.068,47.192 45.677,48.031 45.663 C 48.151 45.661,47.950 45.521,47.583 45.352 C 46.747 44.966,46.241 44.422,45.932 43.576 C 45.799 43.213,45.685 43.052,45.678 43.217 M59.670 43.319 C 59.659 44.054,61.246 45.692,61.939 45.660 C 62.019 45.656,61.858 45.535,61.583 45.390 C 60.810 44.982,60.318 44.478,59.982 43.750 C 59.812 43.383,59.672 43.189,59.670 43.319 M64.901 44.690 C 64.726 44.886,64.283 45.185,63.917 45.353 C 63.550 45.522,63.347 45.661,63.467 45.663 C 63.813 45.669,64.550 45.234,64.987 44.766 C 65.210 44.528,65.352 44.333,65.305 44.333 C 65.257 44.333,65.075 44.494,64.901 44.690 M33.544 50.453 C 33.797 50.491,34.172 50.490,34.377 50.451 C 34.582 50.411,34.375 50.380,33.917 50.381 C 33.458 50.382,33.291 50.415,33.544 50.453 M49.042 50.453 C 49.294 50.491,49.706 50.491,49.958 50.453 C 50.210 50.415,50.004 50.383,49.500 50.383 C 48.996 50.383,48.790 50.415,49.042 50.453 M31.458 50.929 C 30.812 51.279,30.885 51.400,31.542 51.066 C 32.170 50.747,32.281 50.664,32.069 50.673 C 31.985 50.677,31.710 50.792,31.458 50.929 M51.347 50.729 C 51.519 50.882,52.500 51.333,52.500 51.259 C 52.500 51.163,51.576 50.667,51.397 50.667 C 51.332 50.667,51.309 50.695,51.347 50.729 M36.886 51.331 C 37.782 51.899,38.623 53.000,39.029 54.136 C 39.193 54.595,39.313 54.772,39.320 54.566 C 39.358 53.542,37.149 50.833,36.276 50.833 C 36.180 50.833,36.454 51.057,36.886 51.331 M46.662 51.109 C 45.591 51.825,44.329 53.389,44.336 53.991 C 44.338 54.133,44.564 53.842,44.839 53.344 C 45.471 52.198,45.740 51.896,46.658 51.308 C 47.065 51.047,47.326 50.833,47.236 50.833 C 47.147 50.833,46.889 50.957,46.662 51.109 M29.941 52.175 C 27.802 54.553,28.145 58.677,30.611 60.243 C 30.959 60.464,30.892 60.351,30.358 59.813 C 28.194 57.637,28.089 54.420,30.108 52.175 C 30.524 51.712,30.827 51.333,30.781 51.333 C 30.735 51.333,30.357 51.712,29.941 52.175 M53.376 52.134 C 53.801 52.620,54.306 53.407,54.497 53.884 C 54.689 54.360,54.800 54.525,54.744 54.250 C 54.600 53.530,53.959 52.507,53.232 51.833 C 52.687 51.329,52.707 51.370,53.376 52.134 M108.375 51.788 C 108.719 51.824,109.281 51.824,109.625 51.788 C 109.969 51.752,109.688 51.723,109.000 51.723 C 108.313 51.723,108.031 51.752,108.375 51.788 M137.964 51.790 C 138.448 51.824,139.198 51.823,139.631 51.789 C 140.063 51.755,139.667 51.727,138.750 51.728 C 137.833 51.728,137.480 51.756,137.964 51.790 M191.297 51.790 C 191.782 51.824,192.532 51.823,192.964 51.789 C 193.396 51.755,193.000 51.727,192.083 51.728 C 191.167 51.728,190.813 51.756,191.297 51.790 M231.547 51.789 C 231.985 51.824,232.660 51.823,233.047 51.788 C 233.434 51.754,233.075 51.725,232.250 51.726 C 231.425 51.726,231.109 51.755,231.547 51.789 M261.463 51.789 C 261.855 51.824,262.455 51.824,262.796 51.788 C 263.137 51.752,262.817 51.723,262.083 51.724 C 261.350 51.724,261.071 51.754,261.463 51.789 M289.542 51.789 C 289.977 51.824,290.690 51.824,291.125 51.789 C 291.560 51.755,291.204 51.727,290.333 51.727 C 289.462 51.727,289.106 51.755,289.542 51.789 M319.125 51.789 C 319.515 51.824,320.152 51.824,320.542 51.789 C 320.931 51.754,320.612 51.725,319.833 51.725 C 319.054 51.725,318.735 51.754,319.125 51.789 M372.958 51.789 C 373.348 51.824,373.985 51.824,374.375 51.789 C 374.765 51.754,374.446 51.725,373.667 51.725 C 372.887 51.725,372.569 51.754,372.958 51.789 M151.926 52.375 C 151.990 52.581,152.149 52.938,152.281 53.167 C 152.413 53.396,152.479 53.445,152.427 53.276 C 152.375 53.107,152.287 52.789,152.231 52.568 L 152.131 52.167 155.883 52.167 L 159.635 52.167 160.161 53.625 C 162.078 58.940,163.726 63.330,163.782 63.273 C 163.852 63.203,160.119 52.868,159.826 52.319 C 159.665 52.019,159.426 52.000,155.733 52.000 L 151.811 52.000 151.926 52.375 M170.243 52.178 C 170.183 52.276,170.178 52.401,170.233 52.456 C 170.288 52.511,170.333 52.468,170.333 52.361 C 170.333 52.219,171.337 52.167,174.083 52.167 C 176.920 52.167,177.833 52.216,177.833 52.370 C 177.833 52.481,177.378 53.651,176.822 54.970 C 176.266 56.288,175.843 57.399,175.883 57.438 C 175.948 57.504,178.167 52.316,178.167 52.096 C 178.167 51.911,170.359 51.991,170.243 52.178 M249.041 70.708 L 249.083 89.417 252.833 89.417 L 256.583 89.417 256.627 82.792 C 256.651 79.148,256.711 76.167,256.760 76.167 C 256.810 76.167,257.090 76.284,257.383 76.427 L 257.917 76.687 257.500 76.347 C 256.470 75.507,256.500 75.317,256.500 82.667 L 256.500 89.333 252.833 89.333 L 249.167 89.333 249.167 70.750 L 249.167 52.167 252.833 52.167 L 256.500 52.167 256.500 52.917 C 256.500 53.740,256.745 53.891,257.224 53.362 C 257.376 53.194,257.875 52.881,258.333 52.667 C 258.791 52.452,259.136 52.247,259.099 52.211 C 258.994 52.105,257.418 52.947,257.177 53.237 C 256.813 53.676,256.667 53.537,256.667 52.750 L 256.667 52.000 252.833 52.000 L 248.999 52.000 249.041 70.708 M306.500 52.122 C 306.500 52.192,308.187 52.229,310.250 52.202 L 314.000 52.154 314.000 53.067 C 314.000 54.249,314.091 54.277,315.058 53.400 C 316.027 52.520,315.991 52.447,314.982 53.247 L 314.250 53.828 314.167 52.956 L 314.083 52.083 310.292 52.039 C 308.206 52.014,306.500 52.051,306.500 52.122 M322.550 52.266 C 322.859 52.434,322.989 52.614,322.934 52.801 C 322.889 52.956,322.812 53.458,322.764 53.917 C 322.682 54.690,322.693 54.672,322.926 53.667 C 323.184 52.550,322.961 51.982,322.273 52.007 C 322.169 52.010,322.293 52.127,322.550 52.266 M335.936 52.261 C 335.879 52.407,335.851 55.802,335.872 59.805 L 335.911 67.083 335.997 59.667 L 336.083 52.250 339.750 52.250 L 343.417 52.250 343.508 60.750 C 343.607 70.001,343.611 70.036,344.572 71.058 C 344.853 71.358,344.956 71.447,344.800 71.258 C 343.753 69.983,343.758 70.029,343.667 60.667 L 343.583 52.083 339.811 52.039 C 336.480 51.999,336.026 52.025,335.936 52.261 M352.415 52.208 C 352.373 52.323,352.318 56.054,352.291 60.500 C 352.235 69.679,352.247 69.596,350.887 70.955 C 350.488 71.355,350.306 71.604,350.484 71.509 C 352.305 70.534,352.500 69.429,352.500 60.060 L 352.500 52.154 356.250 52.202 C 358.313 52.229,360.000 52.194,360.000 52.125 C 360.000 51.893,352.498 51.975,352.415 52.208 M104.750 52.411 C 104.106 52.705,104.406 52.710,105.167 52.417 C 105.487 52.293,105.638 52.190,105.500 52.187 C 105.362 52.184,105.025 52.285,104.750 52.411 M112.167 52.305 C 112.304 52.390,112.604 52.510,112.833 52.571 C 113.123 52.649,113.174 52.635,113.000 52.528 C 112.862 52.443,112.563 52.324,112.333 52.262 C 112.044 52.185,111.993 52.198,112.167 52.305 M134.250 52.333 C 134.040 52.424,134.009 52.477,134.167 52.477 C 134.304 52.477,134.567 52.412,134.750 52.333 C 134.960 52.243,134.991 52.190,134.833 52.190 C 134.696 52.190,134.433 52.255,134.250 52.333 M143.000 52.417 C 143.761 52.710,144.060 52.705,143.417 52.411 C 143.142 52.285,142.804 52.184,142.667 52.187 C 142.529 52.190,142.679 52.293,143.000 52.417 M187.417 52.411 C 186.773 52.705,187.072 52.710,187.833 52.417 C 188.154 52.293,188.304 52.190,188.167 52.187 C 188.029 52.184,187.692 52.285,187.417 52.411 M227.750 52.411 C 227.106 52.705,227.406 52.710,228.167 52.417 C 228.487 52.293,228.637 52.190,228.500 52.187 C 228.362 52.184,228.025 52.285,227.750 52.411 M236.333 52.417 C 237.094 52.710,237.394 52.705,236.750 52.411 C 236.475 52.285,236.137 52.184,236.000 52.187 C 235.862 52.190,236.012 52.293,236.333 52.417 M265.583 52.333 C 265.767 52.412,266.029 52.477,266.167 52.477 C 266.324 52.477,266.293 52.424,266.083 52.333 C 265.900 52.255,265.637 52.190,265.500 52.190 C 265.342 52.190,265.373 52.243,265.583 52.333 M285.583 52.411 C 284.940 52.705,285.239 52.710,286.000 52.417 C 286.321 52.293,286.471 52.190,286.333 52.187 C 286.196 52.184,285.858 52.285,285.583 52.411 M294.250 52.333 C 294.433 52.412,294.696 52.477,294.833 52.477 C 294.991 52.477,294.960 52.424,294.750 52.333 C 294.567 52.255,294.304 52.190,294.167 52.190 C 294.009 52.190,294.040 52.243,294.250 52.333 M369.750 52.423 C 369.333 52.623,369.319 52.646,369.667 52.562 C 370.139 52.446,370.670 52.176,370.417 52.179 C 370.325 52.181,370.025 52.290,369.750 52.423 M377.333 52.417 C 378.094 52.710,378.394 52.705,377.750 52.411 C 377.475 52.285,377.137 52.184,377.000 52.187 C 376.863 52.190,377.012 52.293,377.333 52.417 M169.923 52.951 C 169.670 53.587,167.773 58.833,167.222 60.417 C 166.570 62.293,165.162 66.054,165.080 66.140 C 165.050 66.171,164.905 65.983,164.757 65.723 C 164.505 65.281,164.495 65.277,164.598 65.667 C 164.801 66.439,165.035 66.575,165.297 66.075 C 165.627 65.445,170.179 52.790,170.103 52.714 C 170.069 52.680,169.988 52.787,169.923 52.951 M103.042 53.186 C 102.290 53.668,102.359 53.778,103.125 53.318 C 103.900 52.852,103.924 52.833,103.736 52.836 C 103.652 52.838,103.340 52.995,103.042 53.186 M185.625 53.178 C 185.281 53.359,185.000 53.545,185.000 53.591 C 185.000 53.636,185.300 53.520,185.667 53.333 C 186.033 53.146,186.333 52.957,186.333 52.913 C 186.333 52.804,186.332 52.805,185.625 53.178 M198.649 53.317 C 202.674 55.615,204.807 59.384,204.884 64.333 L 204.917 66.417 196.000 66.500 L 187.083 66.583 187.113 67.275 C 187.190 69.050,189.341 71.233,191.333 71.560 C 191.890 71.651,191.885 71.645,191.236 71.430 C 189.446 70.836,188.025 69.616,187.505 68.226 C 186.859 66.499,185.908 66.676,196.125 66.626 L 205.083 66.583 205.058 64.333 C 205.000 59.243,201.870 54.116,198.083 52.910 C 197.900 52.852,198.155 53.035,198.649 53.317 M238.333 53.193 C 242.148 55.510,243.721 57.387,244.943 61.083 C 245.155 61.725,245.284 61.987,245.230 61.667 C 244.891 59.669,243.341 57.004,241.533 55.313 C 240.548 54.393,238.236 52.828,237.873 52.836 C 237.805 52.838,238.012 52.998,238.333 53.193 M267.833 53.174 C 269.604 54.301,270.219 54.776,271.117 55.715 C 273.947 58.672,275.176 63.036,274.412 67.418 C 274.120 69.090,274.195 69.504,274.527 68.055 C 275.888 62.110,272.353 54.441,267.541 52.896 C 267.381 52.844,267.512 52.969,267.833 53.174 M283.790 53.152 C 283.124 53.579,283.001 53.753,283.583 53.444 C 284.282 53.074,284.613 52.837,284.417 52.848 C 284.325 52.853,284.043 52.990,283.790 53.152 M296.767 53.308 C 300.722 55.489,302.885 59.258,303.118 64.374 L 303.214 66.497 294.232 66.540 L 285.250 66.583 285.197 67.044 C 285.015 68.629,287.493 71.231,289.500 71.560 C 290.056 71.651,290.052 71.645,289.403 71.430 C 287.217 70.704,285.341 68.719,285.335 67.126 L 285.333 66.670 294.292 66.626 L 303.250 66.583 303.225 64.417 C 303.170 59.541,301.110 55.748,297.255 53.426 C 296.713 53.100,296.190 52.835,296.093 52.836 C 295.996 52.838,296.299 53.050,296.767 53.308 M367.480 53.571 C 365.666 54.788,364.394 56.599,364.231 58.198 C 364.169 58.812,364.202 58.760,364.460 57.833 C 364.971 56.003,366.023 54.673,367.902 53.481 C 368.460 53.126,368.841 52.836,368.748 52.835 C 368.656 52.834,368.085 53.165,367.480 53.571 M131.375 53.665 C 131.077 53.846,130.833 54.031,130.833 54.075 C 130.833 54.119,131.096 54.001,131.417 53.811 C 131.737 53.622,132.000 53.437,132.000 53.400 C 132.000 53.294,131.947 53.316,131.375 53.665 M145.500 53.390 C 145.500 53.431,145.876 53.706,146.335 54.001 C 148.148 55.164,150.015 57.683,150.756 59.965 C 150.914 60.450,151.078 60.811,151.121 60.768 C 151.565 60.324,149.613 56.903,148.020 55.333 C 146.798 54.128,145.500 53.127,145.500 53.390 M224.545 53.996 C 222.121 55.615,219.257 59.580,219.346 61.195 C 219.352 61.317,219.492 61.041,219.655 60.581 C 220.605 57.915,222.777 55.162,224.922 53.905 C 225.583 53.517,225.802 53.333,225.602 53.333 C 225.567 53.333,225.091 53.632,224.545 53.996 M380.000 53.554 C 380.000 53.590,380.394 53.882,380.875 54.203 C 381.356 54.523,382.149 55.146,382.638 55.586 L 383.525 56.387 381.223 58.693 C 378.558 61.364,378.881 61.229,377.708 60.158 C 376.905 59.423,375.167 58.343,375.167 58.578 C 375.167 58.624,375.531 58.846,375.977 59.072 C 376.422 59.297,377.202 59.861,377.708 60.324 C 378.882 61.397,378.545 61.544,381.329 58.754 L 383.737 56.342 383.009 55.713 C 381.653 54.541,380.000 53.355,380.000 53.554 M22.083 53.944 C 23.820 54.859,24.252 56.845,23.088 58.560 C 22.565 59.331,22.677 59.349,23.258 58.587 C 24.523 56.929,23.516 53.610,21.767 53.673 C 21.666 53.677,21.808 53.799,22.083 53.944 M61.083 53.977 C 60.140 54.559,59.505 55.654,59.521 56.667 C 59.525 56.896,59.621 56.702,59.735 56.234 C 59.994 55.166,60.520 54.419,61.305 54.004 C 61.641 53.827,61.842 53.678,61.750 53.675 C 61.658 53.671,61.358 53.807,61.083 53.977 M64.232 54.061 C 66.283 55.303,66.098 58.457,63.917 59.430 C 63.642 59.553,63.533 59.657,63.676 59.660 C 64.607 59.684,65.831 58.004,65.832 56.702 C 65.834 55.345,64.681 53.663,63.753 53.668 C 63.660 53.668,63.875 53.845,64.232 54.061 M101.202 54.484 C 99.940 55.534,98.139 57.861,98.392 58.115 C 98.438 58.160,98.604 57.947,98.760 57.640 C 99.239 56.705,100.621 55.071,101.500 54.400 C 101.958 54.051,102.333 53.743,102.333 53.716 C 102.333 53.578,102.100 53.737,101.202 54.484 M152.514 53.722 C 152.506 53.798,152.716 54.361,152.980 54.972 C 153.244 55.583,153.741 56.758,154.084 57.583 C 154.428 58.408,154.884 59.496,155.098 60.000 C 155.824 61.711,157.452 65.574,158.419 67.879 C 158.948 69.141,159.410 70.146,159.444 70.111 C 159.499 70.056,159.041 68.916,157.593 65.500 C 156.928 63.933,155.075 59.515,154.168 57.333 C 153.125 54.828,152.533 53.534,152.514 53.722 M183.882 54.311 C 178.167 58.828,177.509 68.639,182.565 73.962 C 183.561 75.010,185.822 76.667,186.257 76.667 C 186.337 76.667,185.795 76.293,185.053 75.836 C 177.702 71.312,177.314 59.585,184.333 54.124 C 184.654 53.875,184.867 53.670,184.807 53.669 C 184.746 53.667,184.330 53.957,183.882 54.311 M282.057 54.305 C 276.075 59.039,275.652 69.161,281.216 74.446 C 282.293 75.469,284.028 76.667,284.433 76.667 C 284.512 76.667,284.090 76.386,283.496 76.044 C 275.950 71.690,275.428 59.098,282.583 54.031 C 282.858 53.837,283.034 53.675,282.973 53.672 C 282.913 53.669,282.500 53.954,282.057 54.305 M18.223 54.770 C 17.535 55.672,17.464 57.208,18.063 58.230 C 18.512 58.997,19.511 59.757,19.875 59.610 C 20.001 59.559,19.971 59.521,19.797 59.513 C 18.230 59.441,17.305 56.565,18.330 54.949 C 18.920 54.018,18.866 53.927,18.223 54.770 M129.369 55.299 C 127.295 57.397,125.760 60.895,125.858 63.303 C 125.881 63.855,125.890 63.867,125.948 63.417 C 126.426 59.733,127.543 57.291,129.726 55.162 C 130.287 54.614,130.688 54.167,130.617 54.167 C 130.546 54.167,129.985 54.676,129.369 55.299 M44.073 55.096 C 43.764 57.156,44.922 59.635,46.627 60.563 C 46.786 60.650,46.527 60.368,46.050 59.936 C 44.741 58.750,44.250 57.619,44.251 55.792 C 44.251 54.122,44.231 54.042,44.073 55.096 M54.817 56.083 C 54.696 57.706,54.280 58.652,53.201 59.755 C 52.549 60.421,52.510 60.492,52.969 60.176 C 54.215 59.318,55.066 57.395,54.968 55.664 C 54.920 54.808,54.910 54.835,54.817 56.083 M322.345 56.041 C 322.011 57.977,322.014 57.969,321.612 57.894 C 321.269 57.830,321.267 57.834,321.583 57.980 C 322.076 58.206,322.268 57.853,322.493 56.310 C 322.740 54.624,322.625 54.416,322.345 56.041 M11.980 55.469 C 11.089 56.265,11.447 58.169,12.487 58.166 C 12.633 58.166,12.509 58.018,12.208 57.835 C 11.117 57.170,11.535 55.480,12.868 55.164 C 13.386 55.041,13.392 55.033,12.961 55.017 C 12.679 55.007,12.305 55.179,11.980 55.469 M39.297 56.128 C 39.153 58.142,38.014 59.884,36.275 60.752 C 35.803 60.987,35.604 61.132,35.833 61.074 C 36.958 60.788,38.327 59.520,38.957 58.182 C 39.337 57.377,39.713 55.000,39.461 55.000 C 39.416 55.000,39.342 55.507,39.297 56.128 M69.917 55.158 C 68.578 55.706,68.690 58.206,70.051 58.160 C 70.160 58.156,70.052 58.046,69.809 57.914 C 68.701 57.312,68.966 55.569,70.212 55.261 C 71.802 54.869,72.632 57.131,71.185 57.917 C 70.946 58.047,70.840 58.156,70.949 58.160 C 71.361 58.174,72.013 57.409,72.110 56.796 C 72.287 55.686,70.991 54.718,69.917 55.158 M13.783 55.417 C 14.650 56.024,14.591 57.424,13.676 57.921 C 13.442 58.049,13.340 58.156,13.449 58.160 C 13.958 58.177,14.576 57.373,14.576 56.694 C 14.576 56.027,14.027 55.167,13.601 55.167 C 13.504 55.167,13.587 55.279,13.783 55.417 M59.673 57.297 C 59.661 57.695,60.118 58.581,60.509 58.917 L 60.896 59.250 60.528 58.720 C 60.326 58.428,60.052 57.940,59.920 57.636 C 59.788 57.332,59.677 57.179,59.673 57.297 M109.795 57.621 C 110.094 57.658,110.544 57.657,110.795 57.619 C 111.045 57.581,110.800 57.551,110.250 57.552 C 109.700 57.553,109.495 57.584,109.795 57.621 M317.875 57.615 C 318.035 57.657,318.298 57.657,318.458 57.615 C 318.619 57.573,318.487 57.539,318.167 57.539 C 317.846 57.539,317.715 57.573,317.875 57.615 M112.215 58.098 C 116.709 60.436,117.057 67.822,112.833 71.230 C 112.081 71.837,112.550 71.599,113.383 70.952 C 116.494 68.532,116.845 62.605,114.068 59.361 C 113.506 58.704,111.969 57.662,111.583 57.676 C 111.492 57.679,111.776 57.869,112.215 58.098 M175.622 57.868 C 175.384 58.466,171.614 67.520,171.334 68.167 C 170.335 70.474,167.501 77.351,167.505 77.458 C 167.516 77.733,167.937 76.757,171.407 68.417 C 173.390 63.650,175.199 59.309,175.428 58.769 C 175.656 58.229,175.813 57.757,175.776 57.720 C 175.738 57.683,175.669 57.749,175.622 57.868 M263.551 58.200 C 267.409 60.294,268.211 67.096,264.981 70.327 C 264.694 70.614,264.497 70.886,264.543 70.932 C 264.589 70.978,264.905 70.694,265.245 70.300 C 268.353 66.697,267.583 60.346,263.772 58.160 C 263.302 57.891,262.842 57.671,262.750 57.673 C 262.658 57.674,263.019 57.912,263.551 58.200 M258.733 58.304 C 254.920 61.067,254.432 66.966,257.727 70.470 C 259.093 71.923,261.160 72.578,262.583 72.010 C 262.770 71.936,262.385 71.914,261.708 71.961 C 255.514 72.391,253.418 61.855,258.991 58.305 C 259.398 58.046,259.653 57.833,259.558 57.833 C 259.462 57.833,259.091 58.045,258.733 58.304 M316.143 58.177 L 315.750 58.520 316.250 58.227 C 316.908 57.842,316.918 57.833,316.713 57.833 C 316.616 57.833,316.360 57.988,316.143 58.177 M138.042 58.123 C 138.477 58.157,139.190 58.157,139.625 58.123 C 140.060 58.088,139.704 58.060,138.833 58.060 C 137.962 58.060,137.606 58.088,138.042 58.123 M190.434 58.148 C 190.260 58.216,190.822 58.244,191.684 58.210 C 193.805 58.126,194.077 58.040,192.250 58.031 C 191.425 58.027,190.608 58.079,190.434 58.148 M231.629 58.122 C 232.021 58.157,232.621 58.157,232.963 58.121 C 233.304 58.085,232.983 58.057,232.250 58.057 C 231.517 58.058,231.237 58.087,231.629 58.122 M288.600 58.148 C 288.426 58.216,288.989 58.244,289.850 58.210 C 291.972 58.126,292.244 58.040,290.417 58.031 C 289.592 58.027,288.774 58.079,288.600 58.148 M98.090 58.489 C 97.829 58.912,97.180 61.063,97.094 61.790 C 97.031 62.329,97.129 62.098,97.399 61.068 C 97.618 60.234,97.924 59.309,98.078 59.011 C 98.335 58.514,98.345 58.077,98.090 58.489 M106.582 59.125 C 103.865 61.944,103.663 66.947,106.140 70.052 C 106.695 70.747,107.781 71.667,108.048 71.667 C 108.141 71.667,107.924 71.455,107.567 71.195 C 103.921 68.551,103.549 62.629,106.809 59.125 C 107.214 58.690,107.500 58.333,107.445 58.333 C 107.390 58.333,107.002 58.690,106.582 59.125 M141.417 58.610 C 142.483 59.171,143.500 60.497,143.500 61.327 C 143.500 61.661,143.420 61.667,138.750 61.667 C 134.508 61.667,134.000 61.638,134.000 61.400 C 134.000 60.857,134.565 59.972,135.395 59.214 C 136.105 58.566,136.151 58.493,135.667 58.785 C 134.883 59.257,133.804 60.785,133.868 61.331 L 133.917 61.750 138.739 61.794 C 141.707 61.822,143.624 61.776,143.724 61.676 C 144.235 61.165,141.984 58.307,141.096 58.340 C 140.998 58.344,141.142 58.465,141.417 58.610 M234.842 58.805 C 238.795 61.323,238.899 68.230,235.021 70.689 C 234.607 70.952,234.346 71.167,234.442 71.167 C 236.348 71.167,238.437 66.819,238.010 63.743 C 237.681 61.378,235.577 58.333,234.271 58.333 C 234.178 58.333,234.435 58.546,234.842 58.805 M371.487 58.821 C 370.817 59.491,370.805 60.436,371.458 61.013 L 371.917 61.417 371.542 60.989 C 370.879 60.234,371.065 59.258,371.995 58.617 C 372.222 58.461,372.310 58.333,372.191 58.333 C 372.072 58.333,371.755 58.553,371.487 58.821 M188.530 59.255 C 187.696 60.005,187.011 61.280,187.242 61.654 C 187.441 61.976,196.986 61.896,197.111 61.571 C 197.353 60.942,195.630 58.500,194.945 58.500 C 194.856 58.500,195.086 58.720,195.457 58.988 C 196.155 59.493,197.129 61.157,196.922 61.491 C 196.807 61.677,187.642 61.753,187.458 61.569 C 187.131 61.242,188.095 59.675,189.047 58.985 C 189.415 58.718,189.639 58.500,189.543 58.500 C 189.448 58.500,188.992 58.840,188.530 59.255 M228.798 59.216 C 225.503 61.891,225.741 68.877,229.189 70.716 C 229.728 71.003,229.734 71.003,229.334 70.716 C 225.928 68.271,225.640 62.434,228.781 59.496 C 230.031 58.327,230.038 58.208,228.798 59.216 M286.697 59.255 C 285.816 60.046,285.133 61.367,285.444 61.677 C 285.806 62.040,295.239 61.791,295.296 61.417 C 295.341 61.112,295.330 61.108,295.165 61.375 C 294.961 61.703,285.790 61.835,285.591 61.512 C 285.348 61.119,286.288 59.656,287.214 58.985 C 287.582 58.718,287.805 58.500,287.710 58.500 C 287.614 58.500,287.158 58.840,286.697 59.255 M293.545 58.923 C 293.887 59.155,294.391 59.737,294.665 60.214 C 294.939 60.692,295.164 61.004,295.165 60.908 C 295.170 60.337,293.565 58.500,293.061 58.500 C 292.985 58.500,293.203 58.690,293.545 58.923 M315.095 59.053 C 314.082 60.381,314.089 60.313,314.077 69.333 L 314.066 77.583 314.161 69.333 C 314.262 60.510,314.292 60.210,315.148 59.255 C 315.507 58.853,315.720 58.500,315.602 58.500 C 315.555 58.500,315.327 58.749,315.095 59.053 M364.048 59.750 C 364.049 60.208,364.081 60.376,364.120 60.123 C 364.158 59.869,364.157 59.494,364.117 59.289 C 364.078 59.084,364.046 59.292,364.048 59.750 M21.917 59.423 C 21.642 59.549,21.534 59.655,21.676 59.659 C 21.819 59.663,22.082 59.557,22.260 59.422 C 22.655 59.123,22.570 59.123,21.917 59.423 M20.460 59.785 C 20.668 59.824,20.968 59.823,21.127 59.781 C 21.286 59.739,21.117 59.707,20.750 59.709 C 20.383 59.711,20.253 59.745,20.460 59.785 M62.460 59.785 C 62.668 59.824,62.968 59.823,63.127 59.781 C 63.286 59.739,63.117 59.707,62.750 59.709 C 62.383 59.711,62.253 59.745,62.460 59.785 M31.167 60.605 C 31.167 60.718,32.356 61.199,32.436 61.119 C 32.473 61.082,32.203 60.934,31.835 60.789 C 31.467 60.645,31.167 60.562,31.167 60.605 M51.583 60.833 C 51.217 61.003,50.975 61.148,51.047 61.154 C 51.244 61.173,52.333 60.697,52.333 60.592 C 52.333 60.479,52.385 60.462,51.583 60.833 M364.178 61.083 C 364.158 61.984,365.031 63.505,366.187 64.583 C 367.126 65.460,369.247 66.808,369.418 66.637 C 369.452 66.604,368.990 66.322,368.391 66.012 C 366.328 64.942,364.932 63.349,364.434 61.496 C 364.244 60.791,364.186 60.697,364.178 61.083 M151.245 61.417 C 151.433 62.510,151.694 66.020,151.605 66.253 C 151.523 66.467,150.321 66.500,142.589 66.500 L 133.667 66.500 133.667 67.134 C 133.667 67.927,134.329 69.281,135.033 69.926 L 135.568 70.417 135.012 69.761 C 134.314 68.938,133.842 67.912,133.837 67.208 L 133.833 66.667 142.747 66.667 L 151.660 66.667 151.764 66.255 C 151.902 65.706,151.571 61.861,151.341 61.333 C 151.165 60.928,151.162 60.931,151.245 61.417 M219.019 62.546 C 218.163 67.461,220.858 73.878,224.529 75.663 C 224.799 75.795,224.765 75.737,224.417 75.472 C 220.417 72.436,218.406 67.617,219.151 62.852 C 219.257 62.175,219.312 61.590,219.274 61.552 C 219.235 61.513,219.121 61.961,219.019 62.546 M374.083 62.167 C 374.267 62.245,374.529 62.310,374.667 62.310 C 374.824 62.310,374.793 62.257,374.583 62.167 C 374.400 62.088,374.137 62.023,374.000 62.023 C 373.842 62.023,373.873 62.076,374.083 62.167 M245.462 63.865 C 245.710 68.468,243.688 72.889,240.252 75.256 C 239.237 75.955,239.043 76.184,239.862 75.718 C 243.693 73.534,246.560 66.942,245.501 62.750 C 245.431 62.475,245.414 62.977,245.462 63.865 M96.861 64.549 C 96.790 69.540,99.229 74.202,102.966 76.218 C 104.139 76.851,104.063 76.689,102.829 75.927 C 99.099 73.625,97.273 70.196,97.011 65.000 L 96.890 62.583 96.861 64.549 M376.750 62.923 C 377.025 63.049,377.363 63.149,377.500 63.146 C 377.637 63.144,377.488 63.040,377.167 62.917 C 376.406 62.624,376.106 62.628,376.750 62.923 M378.667 63.583 C 378.896 63.714,379.158 63.822,379.250 63.822 C 379.342 63.822,379.229 63.714,379.000 63.583 C 378.771 63.452,378.508 63.345,378.417 63.345 C 378.325 63.345,378.438 63.452,378.667 63.583 M163.939 63.833 C 163.995 64.063,164.144 64.475,164.269 64.750 C 164.452 65.152,164.476 65.168,164.394 64.833 C 164.338 64.604,164.190 64.192,164.064 63.917 C 163.882 63.515,163.857 63.499,163.939 63.833 M380.167 64.222 C 380.167 64.252,380.540 64.519,380.997 64.815 C 382.461 65.764,383.333 67.110,383.672 68.942 L 383.822 69.750 383.752 68.875 C 383.663 67.758,383.206 66.728,382.403 65.840 C 381.645 65.001,380.167 63.931,380.167 64.222 M125.920 66.675 C 126.111 70.117,128.453 74.172,131.143 75.718 C 131.875 76.139,131.797 75.964,131.024 75.452 C 128.613 73.857,126.647 70.625,126.186 67.500 C 125.886 65.470,125.847 65.349,125.920 66.675 M31.875 66.339 C 31.298 66.570,31.431 66.673,32.042 66.467 C 32.340 66.366,32.615 66.257,32.653 66.225 C 32.788 66.111,32.244 66.190,31.875 66.339 M51.311 66.423 C 51.619 66.557,51.919 66.664,51.977 66.661 C 52.194 66.649,51.240 66.179,51.000 66.179 C 50.862 66.179,51.002 66.289,51.311 66.423 M36.605 66.827 C 37.718 67.465,38.573 68.481,38.980 69.648 C 39.160 70.162,39.311 70.433,39.317 70.250 C 39.344 69.289,37.836 67.263,36.639 66.653 C 35.672 66.159,35.649 66.278,36.605 66.827 M46.825 66.661 C 43.884 68.216,43.127 72.541,45.351 75.079 C 45.914 75.723,47.240 76.668,47.574 76.665 C 47.671 76.664,47.375 76.447,46.917 76.182 C 43.292 74.087,43.285 68.898,46.904 66.822 C 47.833 66.289,47.771 66.161,46.825 66.661 M30.617 67.125 C 29.911 67.656,29.091 68.731,28.933 69.333 C 28.868 69.580,28.979 69.466,29.203 69.055 C 29.645 68.246,30.235 67.558,30.927 67.042 C 31.196 66.841,31.374 66.675,31.321 66.672 C 31.269 66.669,30.952 66.873,30.617 67.125 M53.020 67.469 C 54.162 68.515,54.679 69.608,54.850 71.333 L 54.973 72.583 54.929 71.250 C 54.865 69.335,53.888 67.574,52.471 66.819 C 52.258 66.705,52.505 66.998,53.020 67.469 M371.000 67.250 C 371.761 67.543,372.060 67.539,371.417 67.244 C 371.142 67.118,370.804 67.017,370.667 67.020 C 370.529 67.023,370.679 67.126,371.000 67.250 M62.375 67.615 C 62.535 67.657,62.798 67.657,62.958 67.615 C 63.119 67.573,62.987 67.539,62.667 67.539 C 62.346 67.539,62.215 67.573,62.375 67.615 M21.920 67.899 C 24.389 68.975,24.276 72.641,21.745 73.568 C 21.381 73.701,21.172 73.815,21.281 73.822 C 23.143 73.932,24.596 70.857,23.511 69.101 C 23.109 68.451,22.092 67.662,21.670 67.673 C 21.531 67.677,21.643 67.778,21.920 67.899 M60.887 68.147 C 60.522 68.412,60.098 68.892,59.945 69.214 C 59.485 70.184,59.632 70.271,60.127 69.323 C 60.472 68.663,60.773 68.343,61.320 68.054 C 61.723 67.841,61.939 67.667,61.801 67.667 C 61.663 67.667,61.251 67.883,60.887 68.147 M372.917 67.826 C 373.237 67.971,374.129 68.065,373.986 67.939 C 373.948 67.905,373.617 67.832,373.250 67.776 C 372.785 67.705,372.684 67.720,372.917 67.826 M18.809 68.214 C 16.843 69.861,17.528 73.273,19.917 73.738 L 20.417 73.835 19.917 73.644 C 17.596 72.756,17.065 69.903,18.934 68.363 C 19.287 68.071,19.503 67.836,19.413 67.839 C 19.323 67.843,19.052 68.011,18.809 68.214 M64.562 68.342 C 66.044 69.603,66.037 72.000,64.548 73.158 C 64.215 73.416,64.188 73.468,64.452 73.340 C 66.261 72.465,66.275 69.113,64.474 68.105 C 63.924 67.797,63.925 67.800,64.562 68.342 M336.083 69.167 C 336.147 70.544,336.461 72.428,336.603 72.286 C 336.642 72.247,336.597 71.848,336.503 71.399 C 336.409 70.951,336.261 69.946,336.174 69.167 L 336.017 67.750 336.083 69.167 M367.254 69.208 C 366.747 69.688,366.333 70.155,366.333 70.244 C 366.333 70.333,366.783 69.961,367.333 69.417 L 368.332 68.428 369.124 69.194 C 370.008 70.048,371.290 71.000,371.558 71.000 C 371.653 71.000,371.398 70.788,370.991 70.528 C 370.583 70.269,369.827 69.669,369.310 69.195 C 368.172 68.152,368.366 68.151,367.254 69.208 M375.917 68.608 C 376.911 69.127,377.117 69.906,376.458 70.656 L 376.083 71.083 376.542 70.679 C 377.403 69.920,376.708 68.282,375.550 68.340 C 375.477 68.344,375.642 68.464,375.917 68.608 M144.083 69.623 C 143.524 70.252,143.396 70.465,143.693 70.271 C 143.937 70.112,144.312 69.724,144.527 69.409 C 144.741 69.093,145.016 68.835,145.138 68.834 C 145.328 68.833,149.830 72.893,149.966 73.188 C 150.027 73.320,148.262 75.145,147.583 75.651 L 147.083 76.024 147.637 75.720 C 148.284 75.366,150.220 73.403,150.139 73.184 C 150.018 72.861,145.401 68.681,145.167 68.683 C 145.029 68.684,144.542 69.107,144.083 69.623 M197.877 69.246 C 197.673 69.562,197.111 70.086,196.630 70.411 C 196.148 70.735,195.815 71.000,195.889 71.000 C 196.167 71.000,197.515 69.964,197.957 69.410 C 198.210 69.093,198.480 68.833,198.558 68.833 C 198.793 68.833,203.333 73.026,203.333 73.243 C 203.333 73.569,201.149 75.584,200.359 75.987 C 199.960 76.190,199.673 76.395,199.720 76.442 C 200.013 76.736,203.500 73.771,203.500 73.229 C 203.500 73.124,202.674 72.271,201.665 71.331 C 198.348 68.246,198.479 68.318,197.877 69.246 M296.044 69.246 C 295.839 69.562,295.278 70.086,294.796 70.411 C 294.315 70.735,293.995 71.000,294.086 70.999 C 294.360 70.998,295.855 69.786,296.296 69.208 C 296.523 68.910,296.644 68.668,296.563 68.669 C 296.483 68.670,296.249 68.930,296.044 69.246 M296.833 68.715 C 296.833 68.761,297.883 69.759,299.167 70.934 C 300.450 72.109,301.500 73.155,301.500 73.258 C 301.500 73.569,299.301 75.592,298.542 75.979 C 298.152 76.178,297.833 76.381,297.833 76.430 C 297.833 76.718,299.668 75.447,300.586 74.525 C 301.944 73.160,301.990 73.361,299.875 71.391 C 297.723 69.387,296.833 68.604,296.833 68.715 M326.000 69.250 C 325.771 69.381,325.658 69.488,325.750 69.488 C 325.842 69.488,326.104 69.381,326.333 69.250 C 326.563 69.119,326.675 69.012,326.583 69.012 C 326.492 69.012,326.229 69.119,326.000 69.250 M11.903 69.553 C 10.888 70.426,11.654 72.333,13.019 72.333 C 13.858 72.333,14.738 71.340,14.610 70.537 C 14.505 69.876,13.854 69.162,13.366 69.173 C 13.209 69.177,13.317 69.281,13.607 69.408 C 14.975 70.003,14.487 72.167,12.985 72.167 C 11.552 72.167,11.087 69.976,12.400 69.405 C 12.689 69.279,12.792 69.177,12.634 69.173 C 12.479 69.170,12.150 69.340,11.903 69.553 M69.388 69.566 C 68.365 70.445,69.137 72.333,70.519 72.333 C 71.134 72.333,72.167 71.398,72.167 70.842 C 72.167 70.061,71.426 69.155,70.803 69.173 C 70.682 69.177,70.814 69.280,71.096 69.403 C 72.471 70.002,72.004 72.167,70.500 72.167 C 69.029 72.167,68.554 69.990,69.897 69.406 C 70.187 69.280,70.292 69.177,70.134 69.173 C 69.979 69.170,69.643 69.346,69.388 69.566 M273.677 70.181 C 272.872 72.402,271.220 74.494,269.210 75.839 C 268.529 76.294,268.041 76.667,268.125 76.667 C 268.389 76.667,270.214 75.336,271.061 74.526 C 272.354 73.288,274.331 69.910,274.124 69.290 C 274.092 69.192,273.890 69.592,273.677 70.181 M324.709 70.147 C 323.129 71.591,322.860 73.987,324.060 75.918 C 324.406 76.476,325.600 77.503,325.893 77.495 C 325.998 77.492,325.933 77.407,325.750 77.306 C 323.195 75.899,322.733 72.262,324.850 70.208 C 325.764 69.322,325.661 69.277,324.709 70.147 M331.484 70.185 C 333.620 72.314,333.270 75.657,330.750 77.194 C 330.475 77.362,330.331 77.499,330.431 77.499 C 330.831 77.501,332.142 76.280,332.537 75.539 C 333.573 73.596,333.014 70.995,331.311 69.835 C 330.813 69.496,330.833 69.535,331.484 70.185 M28.605 70.208 C 28.122 72.010,29.090 74.875,30.486 75.776 C 30.764 75.955,30.645 75.761,30.149 75.227 C 29.053 74.046,28.613 72.794,28.706 71.125 C 28.783 69.755,28.766 69.607,28.605 70.208 M383.661 70.625 C 383.658 70.969,383.514 71.662,383.340 72.165 C 382.960 73.264,383.009 73.469,383.412 72.465 C 383.708 71.725,383.961 70.000,383.773 70.000 C 383.715 70.000,383.664 70.281,383.661 70.625 M59.520 70.583 C 59.445 71.955,61.590 74.466,62.262 73.793 C 62.303 73.753,62.042 73.632,61.683 73.525 C 61.317 73.415,60.808 73.075,60.522 72.750 C 60.072 72.237,59.902 71.831,59.615 70.583 L 59.539 70.250 59.520 70.583 M159.500 70.354 C 159.500 70.396,159.793 71.140,160.152 72.007 C 161.609 75.532,162.361 77.258,162.502 77.401 C 162.584 77.484,161.982 75.955,161.164 74.003 C 159.835 70.832,159.500 70.098,159.500 70.354 M364.679 71.767 L 363.298 73.195 363.774 73.692 C 364.326 74.269,365.693 75.328,366.417 75.741 C 366.912 76.023,366.913 76.022,366.506 75.721 C 364.844 74.490,364.202 73.980,363.881 73.636 L 363.512 73.242 364.867 71.870 C 365.612 71.116,366.185 70.463,366.141 70.419 C 366.097 70.375,365.439 70.981,364.679 71.767 M39.333 71.402 C 39.333 73.293,38.216 75.249,36.609 76.171 C 36.137 76.442,35.829 76.664,35.926 76.665 C 36.651 76.672,38.504 74.911,39.034 73.712 C 39.344 73.011,39.657 70.667,39.441 70.667 C 39.382 70.667,39.333 70.997,39.333 71.402 M263.583 71.430 C 263.217 71.649,262.992 71.829,263.083 71.830 C 263.284 71.833,264.333 71.208,264.333 71.086 C 264.333 70.977,264.368 70.961,263.583 71.430 M141.000 71.333 C 140.665 71.441,140.649 71.468,140.917 71.472 C 141.100 71.474,141.400 71.412,141.583 71.333 C 142.008 71.151,141.570 71.151,141.000 71.333 M194.000 71.429 L 193.083 71.654 193.917 71.561 C 194.375 71.510,194.862 71.403,195.000 71.323 C 195.326 71.133,195.117 71.155,194.000 71.429 M230.333 71.316 C 230.471 71.400,230.883 71.513,231.250 71.567 C 231.722 71.636,231.795 71.624,231.500 71.526 C 230.735 71.272,230.066 71.151,230.333 71.316 M292.167 71.429 L 291.250 71.654 292.083 71.561 C 292.542 71.510,293.029 71.403,293.167 71.323 C 293.492 71.133,293.283 71.155,292.167 71.429 M372.500 71.336 C 372.637 71.423,372.969 71.496,373.236 71.497 C 373.881 71.501,373.741 71.405,372.917 71.278 C 372.463 71.209,372.330 71.227,372.500 71.336 M374.917 71.333 C 374.455 71.451,374.449 71.462,374.833 71.478 C 375.063 71.487,375.363 71.422,375.500 71.333 C 375.784 71.150,375.637 71.150,374.917 71.333 M108.964 72.030 C 109.353 72.184,111.204 72.191,111.442 72.039 C 111.547 71.972,110.968 71.917,110.156 71.917 C 109.343 71.917,108.807 71.968,108.964 72.030 M345.892 72.039 C 346.130 72.192,348.980 72.184,349.370 72.030 C 349.527 71.968,348.766 71.917,347.678 71.917 C 346.590 71.917,345.786 71.972,345.892 72.039 M336.673 72.635 C 336.649 73.510,338.433 75.962,339.524 76.553 L 340.083 76.857 339.583 76.479 C 338.559 75.705,337.764 74.730,337.229 73.590 C 336.926 72.945,336.676 72.515,336.673 72.635 M54.443 73.511 C 54.075 74.553,52.939 75.826,52.000 76.250 C 51.631 76.416,51.361 76.583,51.399 76.621 C 51.969 77.191,55.001 73.862,54.801 72.887 C 54.773 72.752,54.612 73.033,54.443 73.511 M382.502 73.914 C 382.304 74.233,381.717 74.882,381.196 75.356 C 380.676 75.830,380.480 76.061,380.760 75.870 C 381.356 75.464,382.544 74.206,382.820 73.691 C 383.128 73.116,382.893 73.280,382.502 73.914 M351.828 75.714 C 351.596 75.917,351.221 76.218,350.995 76.383 C 350.768 76.547,350.696 76.630,350.833 76.566 C 350.971 76.503,351.322 76.274,351.614 76.059 C 352.320 75.537,352.308 75.528,352.377 76.625 L 352.437 77.583 352.468 76.458 C 352.503 75.227,352.452 75.167,351.828 75.714 M225.000 75.898 C 225.000 76.013,226.176 76.713,226.248 76.641 C 226.282 76.606,226.016 76.408,225.655 76.201 C 225.295 75.993,225.000 75.857,225.000 75.898 M31.000 76.082 C 31.000 76.196,32.020 76.702,32.097 76.625 C 32.133 76.589,31.901 76.435,31.581 76.283 C 31.262 76.130,31.000 76.040,31.000 76.082 M114.338 76.245 C 114.226 76.380,113.748 76.683,113.275 76.918 C 112.803 77.154,112.604 77.300,112.833 77.244 C 113.063 77.187,113.571 76.922,113.963 76.654 C 114.854 76.045,114.802 76.033,114.878 76.875 L 114.942 77.583 114.971 76.792 C 115.001 75.959,114.753 75.745,114.338 76.245 M131.833 76.075 C 131.833 76.121,132.058 76.274,132.333 76.417 C 132.608 76.559,132.833 76.638,132.833 76.592 C 132.833 76.546,132.608 76.392,132.333 76.250 C 132.058 76.108,131.833 76.029,131.833 76.075 M145.750 76.604 C 145.108 76.920,144.771 77.129,145.000 77.068 C 145.500 76.935,147.000 76.194,147.000 76.081 C 147.000 75.979,147.113 75.932,145.750 76.604 M238.625 76.262 C 238.002 76.600,238.040 76.741,238.667 76.417 C 238.942 76.274,239.167 76.123,239.167 76.079 C 239.167 75.972,239.149 75.978,238.625 76.262 M367.000 76.075 C 367.000 76.121,367.225 76.274,367.500 76.417 C 367.775 76.559,368.000 76.638,368.000 76.592 C 368.000 76.546,367.775 76.392,367.500 76.250 C 367.225 76.108,367.000 76.029,367.000 76.075 M104.333 76.917 C 104.563 77.048,104.862 77.155,105.000 77.154 C 105.138 77.154,104.998 77.044,104.689 76.910 C 103.979 76.602,103.789 76.606,104.333 76.917 M133.417 76.898 C 133.692 77.023,134.104 77.171,134.333 77.228 C 134.668 77.310,134.652 77.285,134.250 77.102 C 133.975 76.977,133.563 76.829,133.333 76.772 C 132.999 76.690,133.015 76.715,133.417 76.898 M237.031 76.947 C 236.636 77.087,236.342 77.231,236.378 77.267 C 236.454 77.343,238.000 76.835,238.000 76.734 C 238.000 76.630,237.810 76.672,237.031 76.947 M258.089 76.843 C 258.186 77.000,259.327 77.395,259.419 77.304 C 259.453 77.269,259.150 77.121,258.745 76.976 C 258.339 76.830,258.044 76.770,258.089 76.843 M267.250 76.923 C 266.831 77.124,266.818 77.147,267.167 77.063 C 267.396 77.008,267.655 76.896,267.742 76.815 C 267.958 76.613,267.839 76.639,267.250 76.923 M296.333 77.008 C 295.921 77.177,295.696 77.317,295.833 77.320 C 295.971 77.322,296.383 77.183,296.750 77.009 C 297.601 76.606,297.317 76.606,296.333 77.008 M349.833 76.917 C 349.604 77.048,349.492 77.155,349.583 77.155 C 349.675 77.155,349.938 77.048,350.167 76.917 C 350.396 76.786,350.508 76.678,350.417 76.678 C 350.325 76.678,350.063 76.786,349.833 76.917 M378.417 77.012 C 378.050 77.188,377.938 77.286,378.167 77.229 C 378.639 77.111,379.505 76.677,379.250 76.686 C 379.158 76.689,378.783 76.836,378.417 77.012 M33.458 76.954 C 33.756 76.991,34.244 76.991,34.542 76.954 C 34.840 76.917,34.596 76.887,34.000 76.887 C 33.404 76.887,33.160 76.917,33.458 76.954 M48.958 76.954 C 49.256 76.991,49.744 76.991,50.042 76.954 C 50.340 76.917,50.096 76.887,49.500 76.887 C 48.904 76.887,48.660 76.917,48.958 76.954 M198.000 77.083 C 197.679 77.207,197.529 77.310,197.667 77.313 C 197.804 77.316,198.142 77.215,198.417 77.089 C 199.060 76.795,198.761 76.790,198.000 77.083 M106.833 77.664 C 107.245 77.798,108.621 77.890,108.486 77.773 C 108.448 77.740,107.967 77.671,107.417 77.620 C 106.795 77.562,106.574 77.579,106.833 77.664 M136.000 77.666 C 136.411 77.798,137.954 77.890,137.819 77.773 C 137.781 77.740,137.262 77.672,136.667 77.622 C 136.017 77.568,135.750 77.585,136.000 77.666 M141.667 77.667 L 140.917 77.783 141.583 77.792 C 141.950 77.796,142.438 77.740,142.667 77.667 C 143.193 77.498,142.751 77.498,141.667 77.667 M229.333 77.664 C 229.745 77.798,231.121 77.890,230.986 77.773 C 230.948 77.740,230.467 77.671,229.917 77.620 C 229.295 77.562,229.074 77.579,229.333 77.664 M260.500 77.679 C 260.729 77.778,261.479 77.887,262.167 77.920 L 263.417 77.980 262.333 77.850 C 261.737 77.779,260.987 77.671,260.667 77.610 C 260.148 77.511,260.130 77.518,260.500 77.679 M264.167 77.667 L 263.417 77.783 264.083 77.792 C 264.450 77.796,264.938 77.740,265.167 77.667 C 265.693 77.498,265.251 77.498,264.167 77.667 M342.167 77.667 C 342.396 77.740,342.771 77.799,343.000 77.797 C 343.374 77.794,343.366 77.781,342.917 77.667 C 342.212 77.487,341.606 77.487,342.167 77.667 M347.333 77.667 C 346.764 77.787,346.762 77.790,347.250 77.800 C 347.525 77.805,347.900 77.745,348.083 77.667 C 348.484 77.494,348.152 77.494,347.333 77.667 M370.833 77.661 C 371.246 77.799,372.453 77.889,372.319 77.773 C 372.281 77.739,371.837 77.669,371.333 77.617 C 370.742 77.556,370.564 77.571,370.833 77.661 M190.211 77.786 C 190.464 77.825,190.839 77.824,191.044 77.784 C 191.249 77.744,191.042 77.713,190.583 77.714 C 190.125 77.716,189.957 77.748,190.211 77.786 M194.625 77.784 C 194.831 77.824,195.169 77.824,195.375 77.784 C 195.581 77.745,195.412 77.712,195.000 77.712 C 194.588 77.712,194.419 77.745,194.625 77.784 M233.625 77.784 C 233.831 77.824,234.169 77.824,234.375 77.784 C 234.581 77.745,234.412 77.712,234.000 77.712 C 233.588 77.712,233.419 77.745,233.625 77.784 M288.377 77.786 C 288.631 77.825,289.006 77.824,289.211 77.784 C 289.416 77.744,289.208 77.713,288.750 77.714 C 288.292 77.716,288.124 77.748,288.377 77.786 M292.792 77.784 C 292.998 77.824,293.335 77.824,293.542 77.784 C 293.748 77.745,293.579 77.712,293.167 77.712 C 292.754 77.712,292.585 77.745,292.792 77.784 M375.375 77.782 C 375.535 77.823,375.798 77.823,375.958 77.782 C 376.119 77.740,375.988 77.705,375.667 77.705 C 375.346 77.705,375.215 77.740,375.375 77.782 M109.128 77.954 C 109.428 77.991,109.878 77.990,110.128 77.952 C 110.378 77.914,110.133 77.884,109.583 77.885 C 109.033 77.886,108.828 77.917,109.128 77.954 M138.625 77.955 C 139.015 77.990,139.652 77.990,140.042 77.955 C 140.431 77.920,140.112 77.892,139.333 77.892 C 138.554 77.892,138.235 77.920,138.625 77.955 M192.125 77.955 C 192.515 77.990,193.152 77.990,193.542 77.955 C 193.931 77.920,193.612 77.892,192.833 77.892 C 192.054 77.892,191.735 77.920,192.125 77.955 M231.625 77.954 C 231.923 77.991,232.410 77.991,232.708 77.954 C 233.006 77.917,232.762 77.887,232.167 77.887 C 231.571 77.887,231.327 77.917,231.625 77.954 M290.296 77.956 C 290.688 77.991,291.288 77.990,291.629 77.954 C 291.971 77.919,291.650 77.890,290.917 77.890 C 290.183 77.891,289.904 77.920,290.296 77.956 M344.297 77.956 C 344.782 77.990,345.532 77.990,345.964 77.956 C 346.396 77.921,346.000 77.894,345.083 77.894 C 344.167 77.895,343.813 77.923,344.297 77.956 M373.129 77.956 C 373.521 77.991,374.121 77.990,374.463 77.954 C 374.804 77.919,374.483 77.890,373.750 77.890 C 373.017 77.891,372.737 77.920,373.129 77.956 M19.542 81.839 C 18.984 82.063,19.088 82.177,19.667 81.975 C 19.942 81.879,20.167 81.771,20.167 81.734 C 20.167 81.635,19.964 81.669,19.542 81.839 M33.542 81.839 C 32.984 82.063,33.088 82.177,33.667 81.975 C 33.942 81.879,34.167 81.771,34.167 81.734 C 34.167 81.635,33.964 81.669,33.542 81.839 M49.333 81.722 C 49.333 81.766,49.575 81.885,49.871 81.988 C 50.167 82.091,50.336 82.107,50.246 82.023 C 50.056 81.846,49.333 81.607,49.333 81.722 M63.333 81.722 C 63.333 81.766,63.575 81.885,63.871 81.988 C 64.167 82.091,64.336 82.107,64.246 82.023 C 64.056 81.846,63.333 81.607,63.333 81.722 M22.083 82.027 C 24.318 83.260,24.229 86.531,21.932 87.592 C 21.549 87.769,21.523 87.803,21.830 87.725 C 23.452 87.313,24.423 84.958,23.615 83.395 C 23.317 82.819,22.262 81.831,21.953 81.838 C 21.841 81.841,21.900 81.926,22.083 82.027 M60.747 82.358 C 60.144 82.888,59.664 83.635,59.670 84.033 C 59.672 84.153,59.812 83.950,59.982 83.583 C 60.289 82.917,60.789 82.375,61.417 82.028 C 61.600 81.926,61.659 81.841,61.547 81.838 C 61.436 81.836,61.076 82.069,60.747 82.358 M18.468 82.625 C 16.893 84.314,17.953 87.863,20.023 87.830 C 20.148 87.828,19.950 87.688,19.583 87.518 C 17.629 86.617,17.206 84.192,18.715 82.542 C 18.904 82.335,19.022 82.167,18.977 82.167 C 18.932 82.167,18.703 82.373,18.468 82.625 M32.468 82.625 C 31.889 83.246,31.663 83.722,31.683 84.281 C 31.698 84.678,31.724 84.647,31.856 84.083 C 31.942 83.717,32.238 83.135,32.514 82.792 C 33.102 82.059,33.078 81.971,32.468 82.625 M36.887 82.605 C 37.145 82.891,37.459 83.454,37.584 83.854 C 37.732 84.330,37.815 84.450,37.822 84.200 C 37.837 83.683,37.466 83.005,36.891 82.501 L 36.417 82.085 36.887 82.605 M46.468 82.625 C 45.942 83.189,45.663 83.715,45.678 84.114 C 45.685 84.280,45.799 84.119,45.932 83.755 C 46.066 83.391,46.374 82.885,46.618 82.630 C 46.863 82.375,47.025 82.167,46.979 82.167 C 46.933 82.167,46.703 82.373,46.468 82.625 M50.864 82.584 C 52.308 84.194,51.839 86.631,49.917 87.518 C 49.550 87.688,49.356 87.828,49.485 87.830 C 51.637 87.863,52.645 84.040,50.891 82.501 L 50.417 82.085 50.864 82.584 M64.772 82.515 C 66.289 84.230,65.882 86.611,63.917 87.518 C 63.550 87.688,63.347 87.828,63.467 87.830 C 64.045 87.839,65.221 86.881,65.646 86.053 C 66.195 84.984,65.619 82.808,64.636 82.240 C 64.515 82.170,64.577 82.294,64.772 82.515 M31.678 85.319 C 31.652 86.243,33.147 87.844,34.023 87.830 C 34.148 87.828,33.950 87.688,33.583 87.518 C 32.709 87.115,32.194 86.535,31.915 85.643 C 31.756 85.132,31.686 85.036,31.678 85.319 M37.625 85.611 C 37.486 86.271,36.664 87.225,35.995 87.502 C 35.717 87.617,35.524 87.747,35.567 87.789 C 35.979 88.202,37.944 86.079,37.797 85.380 C 37.757 85.188,37.696 85.269,37.625 85.611 M45.678 85.402 C 45.647 86.247,47.189 87.843,48.023 87.830 C 48.148 87.828,47.950 87.688,47.583 87.518 C 46.747 87.133,46.241 86.588,45.932 85.743 C 45.798 85.377,45.685 85.225,45.678 85.402 M59.670 85.475 C 59.658 86.250,61.183 87.854,61.908 87.827 C 62.004 87.823,61.858 87.701,61.583 87.556 C 60.810 87.149,60.318 86.645,59.982 85.917 C 59.812 85.550,59.672 85.351,59.670 85.475 M33.654 91.487 C 32.787 92.354,33.329 94.184,34.446 94.160 C 34.639 94.156,34.558 94.070,34.221 93.924 C 32.770 93.292,33.178 91.167,34.750 91.167 C 36.322 91.167,36.730 93.292,35.279 93.924 C 34.988 94.050,34.875 94.157,35.029 94.160 C 35.651 94.175,36.333 93.350,36.333 92.583 C 36.333 91.146,34.674 90.467,33.654 91.487 M47.654 91.487 C 46.787 92.354,47.329 94.184,48.446 94.160 C 48.639 94.156,48.558 94.070,48.221 93.924 C 46.770 93.292,47.178 91.167,48.750 91.167 C 50.322 91.167,50.730 93.292,49.279 93.924 C 48.942 94.070,48.861 94.156,49.054 94.160 C 49.598 94.172,50.333 93.265,50.333 92.583 C 50.333 91.737,49.597 91.000,48.750 91.000 C 48.299 91.000,48.015 91.126,47.654 91.487 " stroke="none" fill="#779644" fill-rule="evenodd"></path><path id="path3" d="M207.744 39.375 C 207.700 39.490,207.684 48.133,207.707 58.583 L 207.750 77.583 207.833 58.375 C 207.879 47.810,207.896 39.167,207.870 39.167 C 207.844 39.167,207.787 39.260,207.744 39.375 M31.545 42.500 C 31.545 42.913,31.578 43.081,31.618 42.875 C 31.657 42.669,31.657 42.331,31.618 42.125 C 31.578 41.919,31.545 42.087,31.545 42.500 M45.548 42.583 C 45.549 43.042,45.581 43.209,45.620 42.956 C 45.658 42.703,45.657 42.328,45.617 42.123 C 45.578 41.918,45.546 42.125,45.548 42.583 M17.542 42.583 C 17.544 42.950,17.578 43.080,17.618 42.873 C 17.658 42.666,17.656 42.366,17.615 42.206 C 17.573 42.047,17.540 42.217,17.542 42.583 M51.875 42.583 C 51.877 42.950,51.911 43.080,51.951 42.873 C 51.991 42.666,51.990 42.366,51.948 42.206 C 51.906 42.047,51.874 42.217,51.875 42.583 M65.875 42.583 C 65.877 42.950,65.911 43.080,65.951 42.873 C 65.991 42.666,65.990 42.366,65.948 42.206 C 65.906 42.047,65.874 42.217,65.875 42.583 M29.906 52.042 L 29.417 52.583 29.958 52.094 C 30.256 51.825,30.500 51.581,30.500 51.552 C 30.500 51.423,30.362 51.537,29.906 52.042 M53.000 51.552 C 53.000 51.581,53.244 51.825,53.542 52.094 L 54.083 52.583 53.594 52.042 C 53.138 51.537,53.000 51.423,53.000 51.552 M306.413 64.833 C 306.413 71.846,306.433 74.715,306.458 71.208 C 306.483 67.702,306.483 61.965,306.458 58.458 C 306.433 54.952,306.413 57.821,306.413 64.833 M360.079 64.833 C 360.079 71.846,360.100 74.715,360.125 71.208 C 360.150 67.702,360.150 61.965,360.125 58.458 C 360.100 54.952,360.079 57.821,360.079 64.833 M248.875 52.917 C 248.877 53.283,248.911 53.414,248.951 53.206 C 248.991 52.999,248.990 52.699,248.948 52.540 C 248.906 52.380,248.874 52.550,248.875 52.917 M256.693 52.875 C 256.667 53.486,256.861 53.692,257.099 53.308 C 257.170 53.192,257.145 53.160,257.037 53.227 C 256.924 53.297,256.829 53.134,256.787 52.795 C 256.721 52.255,256.720 52.255,256.693 52.875 M248.912 64.917 C 248.912 71.058,248.933 73.547,248.958 70.446 C 248.984 67.346,248.984 62.321,248.958 59.280 C 248.933 56.238,248.912 58.775,248.912 64.917 M147.917 55.167 C 148.368 55.625,148.775 56.000,148.821 56.000 C 148.867 56.000,148.535 55.625,148.083 55.167 C 147.632 54.708,147.225 54.333,147.179 54.333 C 147.133 54.333,147.465 54.708,147.917 55.167 M241.833 55.583 C 242.144 55.904,242.436 56.167,242.482 56.167 C 242.528 56.167,242.311 55.904,242.000 55.583 C 241.689 55.262,241.397 55.000,241.351 55.000 C 241.305 55.000,241.522 55.262,241.833 55.583 M28.375 55.917 C 28.377 56.283,28.411 56.414,28.451 56.206 C 28.491 55.999,28.490 55.699,28.448 55.540 C 28.406 55.380,28.374 55.550,28.375 55.917 M55.042 55.917 C 55.044 56.283,55.078 56.414,55.118 56.206 C 55.158 55.999,55.156 55.699,55.115 55.540 C 55.073 55.380,55.040 55.550,55.042 55.917 M65.875 56.583 C 65.877 56.950,65.911 57.080,65.951 56.873 C 65.991 56.666,65.990 56.366,65.948 56.206 C 65.906 56.047,65.874 56.217,65.875 56.583 M17.539 56.667 C 17.539 56.987,17.573 57.119,17.615 56.958 C 17.657 56.798,17.657 56.535,17.615 56.375 C 17.573 56.215,17.539 56.346,17.539 56.667 M377.750 60.500 C 378.108 60.867,378.438 61.167,378.484 61.167 C 378.530 61.167,378.275 60.867,377.917 60.500 C 377.559 60.133,377.228 59.833,377.182 59.833 C 377.137 59.833,377.392 60.133,377.750 60.500 M33.625 61.451 C 33.831 61.491,34.169 61.491,34.375 61.451 C 34.581 61.411,34.412 61.379,34.000 61.379 C 33.587 61.379,33.419 61.411,33.625 61.451 M49.125 61.451 C 49.331 61.491,49.669 61.491,49.875 61.451 C 50.081 61.411,49.913 61.379,49.500 61.379 C 49.087 61.379,48.919 61.411,49.125 61.451 M125.726 64.750 C 125.725 65.575,125.754 65.934,125.788 65.547 C 125.823 65.160,125.824 64.485,125.789 64.047 C 125.755 63.609,125.726 63.925,125.726 64.750 M151.705 64.000 C 151.705 64.321,151.740 64.452,151.782 64.292 C 151.823 64.131,151.823 63.869,151.782 63.708 C 151.740 63.548,151.705 63.679,151.705 64.000 M96.721 64.750 C 96.722 65.392,96.752 65.634,96.788 65.288 C 96.824 64.942,96.824 64.417,96.787 64.121 C 96.750 63.825,96.721 64.108,96.721 64.750 M365.833 64.417 C 366.144 64.737,366.436 65.000,366.482 65.000 C 366.528 65.000,366.311 64.737,366.000 64.417 C 365.689 64.096,365.397 63.833,365.351 63.833 C 365.305 63.833,365.522 64.096,365.833 64.417 M179.042 64.583 C 179.044 64.950,179.078 65.080,179.118 64.873 C 179.158 64.666,179.156 64.366,179.115 64.206 C 179.073 64.047,179.040 64.217,179.042 64.583 M277.205 64.667 C 277.205 64.987,277.240 65.119,277.282 64.958 C 277.323 64.798,277.323 64.535,277.282 64.375 C 277.240 64.215,277.205 64.346,277.205 64.667 M255.705 64.833 C 255.705 65.154,255.740 65.285,255.782 65.125 C 255.823 64.965,255.823 64.702,255.782 64.542 C 255.740 64.381,255.705 64.512,255.705 64.833 M335.885 67.917 C 335.886 68.467,335.917 68.672,335.954 68.372 C 335.991 68.072,335.990 67.622,335.952 67.372 C 335.914 67.122,335.884 67.367,335.885 67.917 M327.792 68.784 C 327.998 68.824,328.335 68.824,328.542 68.784 C 328.748 68.745,328.579 68.712,328.167 68.712 C 327.754 68.712,327.585 68.745,327.792 68.784 M134.667 69.385 C 134.667 69.414,134.910 69.658,135.208 69.927 L 135.750 70.417 135.260 69.875 C 134.804 69.370,134.667 69.257,134.667 69.385 M383.875 69.917 C 383.877 70.283,383.911 70.414,383.951 70.206 C 383.991 69.999,383.990 69.699,383.948 69.540 C 383.906 69.380,383.874 69.550,383.875 69.917 M17.539 70.667 C 17.539 70.987,17.573 71.119,17.615 70.958 C 17.657 70.798,17.657 70.535,17.615 70.375 C 17.573 70.215,17.539 70.346,17.539 70.667 M65.875 70.750 C 65.877 71.117,65.911 71.247,65.951 71.040 C 65.991 70.832,65.990 70.532,65.948 70.373 C 65.906 70.214,65.874 70.383,65.875 70.750 M28.375 71.417 C 28.377 71.783,28.411 71.914,28.451 71.706 C 28.491 71.499,28.490 71.199,28.448 71.040 C 28.406 70.880,28.374 71.050,28.375 71.417 M55.045 71.500 C 55.045 71.912,55.078 72.081,55.118 71.875 C 55.157 71.669,55.157 71.331,55.118 71.125 C 55.078 70.919,55.045 71.087,55.045 71.500 M148.500 71.552 C 148.500 71.581,148.744 71.825,149.042 72.094 L 149.583 72.583 149.094 72.042 C 148.638 71.537,148.500 71.423,148.500 71.552 M323.205 73.167 C 323.205 73.487,323.240 73.619,323.282 73.458 C 323.323 73.298,323.323 73.035,323.282 72.875 C 323.240 72.715,323.205 72.846,323.205 73.167 M222.500 74.083 C 222.998 74.587,223.443 75.000,223.489 75.000 C 223.534 75.000,223.165 74.587,222.667 74.083 C 222.169 73.579,221.724 73.167,221.678 73.167 C 221.632 73.167,222.002 73.579,222.500 74.083 M280.833 74.250 C 281.331 74.754,281.776 75.167,281.822 75.167 C 281.868 75.167,281.498 74.754,281.000 74.250 C 280.502 73.746,280.057 73.333,280.011 73.333 C 279.966 73.333,280.335 73.746,280.833 74.250 M182.750 74.333 C 183.108 74.700,183.438 75.000,183.484 75.000 C 183.530 75.000,183.275 74.700,182.917 74.333 C 182.559 73.967,182.228 73.667,182.182 73.667 C 182.137 73.667,182.392 73.967,182.750 74.333 M381.658 75.125 L 381.083 75.750 381.708 75.176 C 382.290 74.641,382.410 74.500,382.283 74.500 C 382.255 74.500,381.974 74.781,381.658 75.125 M256.629 82.825 C 256.604 86.487,256.638 89.429,256.704 89.362 C 256.863 89.203,256.953 76.167,256.795 76.167 C 256.729 76.167,256.654 79.163,256.629 82.825 M248.909 82.750 C 248.909 86.325,248.931 87.764,248.958 85.947 C 248.985 84.131,248.985 81.206,248.958 79.447 C 248.931 77.689,248.909 79.175,248.909 82.750 M116.884 77.625 C 117.967 77.654,119.692 77.654,120.718 77.624 C 121.744 77.595,120.858 77.571,118.750 77.571 C 116.642 77.572,115.802 77.595,116.884 77.625 M163.883 77.624 C 164.597 77.655,165.722 77.655,166.383 77.624 C 167.043 77.592,166.458 77.566,165.083 77.567 C 163.708 77.567,163.168 77.593,163.883 77.624 M209.792 77.624 C 210.823 77.654,212.510 77.654,213.542 77.624 C 214.573 77.595,213.729 77.571,211.667 77.571 C 209.604 77.571,208.760 77.595,209.792 77.624 M308.458 77.624 C 309.490 77.654,311.177 77.654,312.208 77.624 C 313.240 77.595,312.396 77.571,310.333 77.571 C 308.271 77.571,307.427 77.595,308.458 77.624 M354.292 77.624 C 355.323 77.654,357.010 77.654,358.042 77.624 C 359.073 77.595,358.229 77.571,356.167 77.571 C 354.104 77.571,353.260 77.595,354.292 77.624 M45.548 84.750 C 45.549 85.208,45.581 85.376,45.620 85.123 C 45.658 84.869,45.657 84.494,45.617 84.289 C 45.578 84.084,45.546 84.292,45.548 84.750 M31.545 84.833 C 31.545 85.246,31.578 85.415,31.618 85.208 C 31.657 85.002,31.657 84.665,31.618 84.458 C 31.578 84.252,31.545 84.421,31.545 84.833 M51.875 84.750 C 51.877 85.117,51.911 85.247,51.951 85.040 C 51.991 84.832,51.990 84.532,51.948 84.373 C 51.906 84.214,51.874 84.383,51.875 84.750 M65.875 84.750 C 65.877 85.117,65.911 85.247,65.951 85.040 C 65.991 84.832,65.990 84.532,65.948 84.373 C 65.906 84.214,65.874 84.383,65.875 84.750 M17.539 84.833 C 17.539 85.154,17.573 85.285,17.615 85.125 C 17.657 84.965,17.657 84.702,17.615 84.542 C 17.573 84.381,17.539 84.512,17.539 84.833 " stroke="none" fill="#94bc55" fill-rule="evenodd"></path><path id="path4" d="M207.776 39.125 C 207.733 39.194,209.484 39.250,211.667 39.250 C 213.849 39.250,215.600 39.194,215.558 39.125 C 215.515 39.056,213.764 39.000,211.667 39.000 C 209.569 39.000,207.818 39.056,207.776 39.125 M114.743 40.209 C 114.699 40.324,114.683 43.342,114.708 46.917 L 114.754 53.417 114.794 46.795 L 114.833 40.173 118.708 40.125 L 122.583 40.077 118.703 40.038 C 115.720 40.009,114.804 40.048,114.743 40.209 M122.667 58.867 C 122.621 69.198,122.640 77.593,122.709 77.524 C 122.778 77.455,122.816 69.003,122.792 58.741 L 122.750 40.083 122.667 58.867 M33.708 50.282 C 33.869 50.323,34.131 50.323,34.292 50.282 C 34.452 50.240,34.321 50.205,34.000 50.205 C 33.679 50.205,33.548 50.240,33.708 50.282 M49.208 50.282 C 49.369 50.323,49.631 50.323,49.792 50.282 C 49.952 50.240,49.821 50.205,49.500 50.205 C 49.179 50.205,49.048 50.240,49.208 50.282 M319.544 51.620 C 319.797 51.658,320.172 51.657,320.377 51.617 C 320.582 51.578,320.375 51.546,319.917 51.548 C 319.458 51.549,319.291 51.581,319.544 51.620 M373.042 51.615 C 373.202 51.657,373.465 51.657,373.625 51.615 C 373.785 51.573,373.654 51.539,373.333 51.539 C 373.012 51.539,372.881 51.573,373.042 51.615 M153.884 51.958 C 154.967 51.987,156.692 51.987,157.718 51.958 C 158.744 51.928,157.858 51.905,155.750 51.905 C 153.642 51.905,152.802 51.929,153.884 51.958 M172.384 51.958 C 173.467 51.987,175.192 51.987,176.218 51.958 C 177.244 51.928,176.358 51.905,174.250 51.905 C 172.142 51.905,171.302 51.929,172.384 51.958 M250.958 51.958 C 251.990 51.987,253.677 51.987,254.708 51.958 C 255.740 51.929,254.896 51.905,252.833 51.905 C 250.771 51.905,249.927 51.929,250.958 51.958 M308.366 51.958 C 309.346 51.987,310.996 51.987,312.032 51.958 C 313.069 51.929,312.267 51.904,310.250 51.904 C 308.233 51.904,307.385 51.928,308.366 51.958 M337.866 51.958 C 338.846 51.987,340.496 51.987,341.532 51.958 C 342.569 51.929,341.767 51.904,339.750 51.904 C 337.733 51.904,336.885 51.928,337.866 51.958 M354.366 51.958 C 355.346 51.987,356.996 51.987,358.032 51.958 C 359.069 51.929,358.267 51.904,356.250 51.904 C 354.233 51.904,353.385 51.928,354.366 51.958 M314.197 52.792 C 314.165 53.705,314.302 53.867,314.688 53.375 C 314.894 53.113,314.888 53.106,314.635 53.304 C 314.379 53.504,314.347 53.448,314.290 52.721 L 314.227 51.917 314.197 52.792 M352.244 59.833 C 352.244 64.188,352.265 65.969,352.292 63.792 C 352.318 61.615,352.318 58.052,352.292 55.875 C 352.265 53.698,352.244 55.479,352.244 59.833 M343.744 60.250 C 343.744 64.742,343.765 66.555,343.792 64.280 C 343.818 62.005,343.818 58.330,343.791 56.113 C 343.765 53.897,343.744 55.758,343.744 60.250 M335.743 59.583 C 335.743 63.617,335.765 65.243,335.792 63.197 C 335.818 61.151,335.818 57.851,335.791 55.864 C 335.765 53.876,335.743 55.550,335.743 59.583 M18.406 54.375 L 17.917 54.917 18.458 54.427 C 18.756 54.158,19.000 53.914,19.000 53.885 C 19.000 53.757,18.862 53.870,18.406 54.375 M366.000 54.583 C 365.595 54.996,365.301 55.333,365.347 55.333 C 365.393 55.333,365.762 54.996,366.167 54.583 C 366.572 54.171,366.865 53.833,366.819 53.833 C 366.774 53.833,366.405 54.171,366.000 54.583 M177.194 54.590 C 176.914 55.203,176.968 55.334,177.270 54.777 C 177.411 54.517,177.495 54.273,177.457 54.235 C 177.419 54.196,177.300 54.357,177.194 54.590 M100.161 55.292 L 99.250 56.250 100.208 55.339 C 101.099 54.493,101.243 54.333,101.119 54.333 C 101.093 54.333,100.662 54.765,100.161 55.292 M201.500 55.250 C 201.998 55.754,202.443 56.167,202.489 56.167 C 202.534 56.167,202.165 55.754,201.667 55.250 C 201.169 54.746,200.724 54.333,200.678 54.333 C 200.632 54.333,201.002 54.746,201.500 55.250 M299.667 55.250 C 300.165 55.754,300.609 56.167,300.655 56.167 C 300.701 56.167,300.331 55.754,299.833 55.250 C 299.335 54.746,298.891 54.333,298.845 54.333 C 298.799 54.333,299.169 54.746,299.667 55.250 M129.077 55.375 L 128.250 56.250 129.125 55.423 C 129.938 54.654,130.076 54.500,129.952 54.500 C 129.926 54.500,129.532 54.894,129.077 55.375 M43.887 55.833 C 43.887 56.429,43.917 56.673,43.954 56.375 C 43.991 56.077,43.991 55.590,43.954 55.292 C 43.917 54.994,43.887 55.237,43.887 55.833 M270.833 55.052 C 270.833 55.081,271.077 55.325,271.375 55.594 L 271.917 56.083 271.427 55.542 C 270.971 55.037,270.833 54.923,270.833 55.052 M222.240 55.708 L 221.750 56.250 222.292 55.760 C 222.590 55.491,222.833 55.248,222.833 55.219 C 222.833 55.090,222.696 55.203,222.240 55.708 M59.372 56.667 C 59.372 56.987,59.406 57.119,59.448 56.958 C 59.490 56.798,59.490 56.535,59.448 56.375 C 59.406 56.215,59.372 56.346,59.372 56.667 M68.833 57.277 C 68.833 57.367,69.040 57.624,69.292 57.846 L 69.750 58.250 69.333 57.750 C 69.104 57.475,68.898 57.219,68.875 57.181 C 68.852 57.142,68.833 57.186,68.833 57.277 M71.681 57.730 L 71.279 58.250 71.755 57.797 C 72.018 57.547,72.199 57.314,72.158 57.277 C 72.117 57.240,71.902 57.444,71.681 57.730 M23.776 57.707 C 23.713 57.956,23.422 58.443,23.129 58.789 C 22.646 59.357,22.640 59.377,23.064 59.000 C 23.599 58.523,24.051 57.737,23.955 57.448 C 23.919 57.341,23.838 57.457,23.776 57.707 M98.075 58.182 C 97.929 58.466,97.838 58.727,97.875 58.763 C 97.911 58.800,98.065 58.568,98.217 58.248 C 98.560 57.529,98.441 57.474,98.075 58.182 M59.667 57.958 C 59.667 58.217,60.810 59.500,61.042 59.500 C 61.135 59.500,61.006 59.338,60.754 59.140 C 60.502 58.942,60.154 58.548,59.982 58.265 C 59.809 57.982,59.668 57.844,59.667 57.958 M54.289 58.709 L 53.995 59.250 54.331 58.857 C 54.617 58.522,54.769 58.164,54.625 58.168 C 54.602 58.168,54.451 58.412,54.289 58.709 M315.573 58.875 L 315.083 59.417 315.625 58.927 C 316.130 58.471,316.243 58.333,316.115 58.333 C 316.086 58.333,315.842 58.577,315.573 58.875 M106.906 59.042 L 106.417 59.583 106.958 59.094 C 107.256 58.825,107.500 58.581,107.500 58.552 C 107.500 58.423,107.362 58.537,106.906 59.042 M371.512 59.106 C 371.314 59.358,371.175 59.767,371.186 60.064 C 371.204 60.567,371.209 60.564,371.326 59.959 C 371.393 59.615,371.583 59.184,371.750 59.001 C 371.916 58.817,372.008 58.667,371.955 58.667 C 371.901 58.667,371.702 58.864,371.512 59.106 M257.740 59.375 L 257.250 59.917 257.792 59.427 C 258.297 58.971,258.410 58.833,258.281 58.833 C 258.252 58.833,258.009 59.077,257.740 59.375 M135.073 59.542 L 134.583 60.083 135.125 59.594 C 135.423 59.325,135.667 59.081,135.667 59.052 C 135.667 58.923,135.529 59.037,135.073 59.542 M228.575 59.708 L 227.917 60.417 228.625 59.758 C 229.015 59.395,229.333 59.077,229.333 59.050 C 229.333 58.923,229.188 59.050,228.575 59.708 M363.881 59.750 C 363.882 60.208,363.915 60.376,363.953 60.123 C 363.991 59.869,363.990 59.494,363.951 59.289 C 363.911 59.084,363.880 59.292,363.881 59.750 M235.333 59.219 C 235.333 59.248,235.577 59.491,235.875 59.760 L 236.417 60.250 235.927 59.708 C 235.471 59.203,235.333 59.090,235.333 59.219 M29.500 59.385 C 29.500 59.414,29.744 59.658,30.042 59.927 L 30.583 60.417 30.094 59.875 C 29.638 59.370,29.500 59.257,29.500 59.385 M53.406 59.875 L 52.917 60.417 53.458 59.927 C 53.756 59.658,54.000 59.414,54.000 59.385 C 54.000 59.257,53.862 59.370,53.406 59.875 M379.906 60.208 L 379.417 60.750 379.958 60.260 C 380.463 59.804,380.577 59.667,380.448 59.667 C 380.419 59.667,380.175 59.910,379.906 60.208 M20.375 59.948 C 20.535 59.990,20.798 59.990,20.958 59.948 C 21.119 59.906,20.987 59.872,20.667 59.872 C 20.346 59.872,20.215 59.906,20.375 59.948 M62.375 59.948 C 62.535 59.990,62.798 59.990,62.958 59.948 C 63.119 59.906,62.987 59.872,62.667 59.872 C 62.346 59.872,62.215 59.906,62.375 59.948 M134.043 61.333 C 134.101 61.548,134.772 61.584,138.764 61.587 L 143.417 61.592 138.841 61.543 C 135.450 61.507,134.229 61.441,134.120 61.289 C 134.014 61.139,133.993 61.151,134.043 61.333 M192.167 61.500 L 187.417 61.591 192.115 61.629 C 195.109 61.653,196.851 61.606,196.917 61.500 C 196.973 61.408,196.996 61.350,196.968 61.371 C 196.940 61.392,194.779 61.450,192.167 61.500 M288.042 61.625 C 289.302 61.653,291.365 61.653,292.625 61.625 C 293.885 61.596,292.854 61.573,290.333 61.573 C 287.813 61.573,286.781 61.596,288.042 61.625 M314.167 69.867 C 314.121 74.148,314.140 77.593,314.210 77.523 C 314.280 77.454,314.317 73.951,314.293 69.740 L 314.250 62.083 314.167 69.867 M151.705 63.000 C 151.705 63.321,151.740 63.452,151.782 63.292 C 151.823 63.131,151.823 62.869,151.782 62.708 C 151.740 62.548,151.705 62.679,151.705 63.000 M277.212 63.500 C 277.212 63.913,277.245 64.081,277.284 63.875 C 277.324 63.669,277.324 63.331,277.284 63.125 C 277.245 62.919,277.212 63.087,277.212 63.500 M179.039 63.500 C 179.039 63.821,179.073 63.952,179.115 63.792 C 179.157 63.631,179.157 63.369,179.115 63.208 C 179.073 63.048,179.039 63.179,179.039 63.500 M218.728 64.833 C 218.728 65.796,218.756 66.190,218.790 65.708 C 218.823 65.227,218.823 64.440,218.790 63.958 C 218.756 63.477,218.728 63.871,218.728 64.833 M104.705 63.833 C 104.705 64.154,104.740 64.285,104.782 64.125 C 104.823 63.965,104.823 63.702,104.782 63.542 C 104.740 63.381,104.705 63.512,104.705 63.833 M205.228 64.917 C 205.228 65.833,205.256 66.187,205.290 65.703 C 205.324 65.218,205.323 64.468,205.289 64.036 C 205.255 63.604,205.227 64.000,205.228 64.917 M237.709 63.917 C 237.711 64.283,237.745 64.414,237.785 64.206 C 237.824 63.999,237.823 63.699,237.781 63.540 C 237.739 63.380,237.707 63.550,237.709 63.917 M245.727 64.833 C 245.727 65.704,245.755 66.060,245.789 65.625 C 245.824 65.190,245.824 64.477,245.789 64.042 C 245.755 63.606,245.727 63.962,245.727 64.833 M274.893 64.833 C 274.893 65.704,274.922 66.060,274.956 65.625 C 274.990 65.190,274.990 64.477,274.956 64.042 C 274.922 63.606,274.893 63.962,274.893 64.833 M303.394 64.917 C 303.395 65.833,303.423 66.187,303.456 65.703 C 303.490 65.218,303.490 64.468,303.456 64.036 C 303.421 63.604,303.394 64.000,303.394 64.917 M266.887 64.833 C 266.887 65.429,266.917 65.673,266.954 65.375 C 266.991 65.077,266.991 64.590,266.954 64.292 C 266.917 63.994,266.887 64.237,266.887 64.833 M115.718 64.917 C 115.719 65.467,115.750 65.672,115.787 65.372 C 115.825 65.072,115.824 64.622,115.786 64.372 C 115.748 64.122,115.717 64.367,115.718 64.917 M173.027 64.590 C 172.748 65.203,172.801 65.334,173.103 64.777 C 173.244 64.517,173.328 64.273,173.290 64.235 C 173.252 64.196,173.134 64.357,173.027 64.590 M151.885 65.417 C 151.886 65.967,151.917 66.172,151.954 65.872 C 151.991 65.572,151.990 65.122,151.952 64.872 C 151.914 64.622,151.884 64.867,151.885 65.417 M179.045 65.833 C 179.045 66.246,179.078 66.415,179.118 66.208 C 179.157 66.002,179.157 65.665,179.118 65.458 C 179.078 65.252,179.045 65.421,179.045 65.833 M237.709 65.750 C 237.711 66.117,237.745 66.247,237.785 66.040 C 237.824 65.832,237.823 65.532,237.781 65.373 C 237.739 65.214,237.707 65.383,237.709 65.750 M277.214 65.917 C 277.216 66.375,277.248 66.543,277.286 66.289 C 277.325 66.036,277.324 65.661,277.284 65.456 C 277.244 65.251,277.213 65.458,277.214 65.917 M104.705 65.833 C 104.705 66.154,104.740 66.285,104.782 66.125 C 104.823 65.965,104.823 65.702,104.782 65.542 C 104.740 65.381,104.705 65.512,104.705 65.833 M255.872 66.000 C 255.872 66.321,255.906 66.452,255.948 66.292 C 255.990 66.131,255.990 65.869,255.948 65.708 C 255.906 65.548,255.872 65.679,255.872 66.000 M33.458 65.954 C 33.756 65.991,34.244 65.991,34.542 65.954 C 34.840 65.917,34.596 65.887,34.000 65.887 C 33.404 65.887,33.160 65.917,33.458 65.954 M48.958 65.954 C 49.256 65.991,49.744 65.991,50.042 65.954 C 50.340 65.917,50.096 65.887,49.500 65.887 C 48.904 65.887,48.660 65.917,48.958 65.954 M53.000 67.052 C 53.000 67.081,53.244 67.325,53.542 67.594 L 54.083 68.083 53.594 67.542 C 53.138 67.037,53.000 66.923,53.000 67.052 M29.065 68.589 C 28.913 68.821,28.818 69.041,28.856 69.078 C 28.893 69.115,29.049 68.925,29.204 68.656 C 29.548 68.057,29.446 68.007,29.065 68.589 M367.406 68.875 L 366.917 69.417 367.458 68.927 C 367.963 68.471,368.077 68.333,367.948 68.333 C 367.919 68.333,367.675 68.577,367.406 68.875 M145.333 68.552 C 145.333 68.581,145.577 68.825,145.875 69.094 L 146.417 69.583 145.927 69.042 C 145.471 68.537,145.333 68.423,145.333 68.552 M335.872 69.333 C 335.872 69.654,335.906 69.785,335.948 69.625 C 335.990 69.465,335.990 69.202,335.948 69.042 C 335.906 68.881,335.872 69.012,335.872 69.333 M199.917 69.667 C 200.275 70.033,200.605 70.333,200.651 70.333 C 200.697 70.333,200.441 70.033,200.083 69.667 C 199.725 69.300,199.395 69.000,199.349 69.000 C 199.303 69.000,199.559 69.300,199.917 69.667 M11.667 69.583 C 11.452 69.811,11.308 70.027,11.347 70.061 C 11.385 70.095,11.591 69.908,11.804 69.645 C 12.282 69.056,12.197 69.018,11.667 69.583 M71.681 69.603 C 71.902 69.889,72.117 70.093,72.158 70.056 C 72.199 70.020,72.018 69.786,71.755 69.537 L 71.279 69.083 71.681 69.603 M298.250 69.833 C 298.608 70.200,298.938 70.500,298.984 70.500 C 299.030 70.500,298.775 70.200,298.417 69.833 C 298.059 69.467,297.728 69.167,297.682 69.167 C 297.637 69.167,297.892 69.467,298.250 69.833 M143.740 69.875 L 143.250 70.417 143.792 69.927 C 144.090 69.658,144.333 69.414,144.333 69.385 C 144.333 69.257,144.196 69.370,143.740 69.875 M188.167 69.385 C 188.167 69.414,188.410 69.658,188.708 69.927 L 189.250 70.417 188.760 69.875 C 188.304 69.370,188.167 69.257,188.167 69.385 M228.500 69.917 C 228.811 70.237,229.103 70.500,229.149 70.500 C 229.195 70.500,228.978 70.237,228.667 69.917 C 228.356 69.596,228.064 69.333,228.018 69.333 C 227.972 69.333,228.189 69.596,228.500 69.917 M286.333 69.385 C 286.333 69.414,286.577 69.658,286.875 69.927 L 287.417 70.417 286.927 69.875 C 286.471 69.370,286.333 69.257,286.333 69.385 M235.740 70.042 L 235.250 70.583 235.792 70.094 C 236.297 69.638,236.410 69.500,236.281 69.500 C 236.252 69.500,236.009 69.744,235.740 70.042 M364.997 71.292 L 363.250 73.083 365.042 71.336 C 366.706 69.714,366.909 69.500,366.789 69.500 C 366.764 69.500,365.958 70.306,364.997 71.292 M331.333 69.719 C 331.333 69.748,331.577 69.991,331.875 70.260 L 332.417 70.750 331.927 70.208 C 331.471 69.703,331.333 69.590,331.333 69.719 M106.750 70.500 C 107.108 70.867,107.438 71.167,107.484 71.167 C 107.530 71.167,107.275 70.867,106.917 70.500 C 106.559 70.133,106.228 69.833,106.182 69.833 C 106.137 69.833,106.392 70.133,106.750 70.500 M147.660 70.708 C 148.068 71.144,148.425 71.500,148.451 71.500 C 148.577 71.500,148.444 71.350,147.708 70.660 L 146.917 69.917 147.660 70.708 M258.000 70.583 C 258.311 70.904,258.603 71.167,258.649 71.167 C 258.695 71.167,258.478 70.904,258.167 70.583 C 257.856 70.262,257.564 70.000,257.518 70.000 C 257.472 70.000,257.689 70.262,258.000 70.583 M43.887 71.500 C 43.887 72.096,43.917 72.340,43.954 72.042 C 43.991 71.744,43.991 71.256,43.954 70.958 C 43.917 70.660,43.887 70.904,43.887 71.500 M39.550 71.500 C 39.550 72.004,39.581 72.210,39.619 71.958 C 39.658 71.706,39.658 71.294,39.619 71.042 C 39.581 70.790,39.550 70.996,39.550 71.500 M300.493 71.875 C 301.184 72.611,301.333 72.743,301.333 72.618 C 301.333 72.591,300.977 72.235,300.542 71.826 L 299.750 71.083 300.493 71.875 M202.417 72.000 C 202.775 72.367,203.105 72.667,203.151 72.667 C 203.197 72.667,202.941 72.367,202.583 72.000 C 202.225 71.633,201.895 71.333,201.849 71.333 C 201.803 71.333,202.059 71.633,202.417 72.000 M149.677 72.596 C 149.992 72.970,150.284 73.249,150.325 73.216 C 150.366 73.183,150.108 72.877,149.752 72.536 L 149.104 71.917 149.677 72.596 M129.167 74.250 C 129.665 74.754,130.109 75.167,130.155 75.167 C 130.201 75.167,129.831 74.754,129.333 74.250 C 128.835 73.746,128.391 73.333,128.345 73.333 C 128.299 73.333,128.669 73.746,129.167 74.250 M271.575 74.042 L 270.917 74.750 271.625 74.091 C 272.015 73.729,272.333 73.410,272.333 73.383 C 272.333 73.257,272.188 73.383,271.575 74.042 M20.460 73.951 C 20.668 73.991,20.968 73.990,21.127 73.948 C 21.286 73.906,21.117 73.874,20.750 73.875 C 20.383 73.877,20.253 73.911,20.460 73.951 M62.460 73.951 C 62.668 73.991,62.968 73.990,63.127 73.948 C 63.286 73.906,63.117 73.874,62.750 73.875 C 62.383 73.877,62.253 73.911,62.460 73.951 M202.406 74.708 L 201.917 75.250 202.458 74.760 C 202.963 74.304,203.077 74.167,202.948 74.167 C 202.919 74.167,202.675 74.410,202.406 74.708 M241.240 74.708 L 240.750 75.250 241.292 74.760 C 241.797 74.304,241.910 74.167,241.781 74.167 C 241.752 74.167,241.509 74.410,241.240 74.708 M352.186 76.615 C 352.175 77.091,352.224 77.516,352.295 77.559 C 352.365 77.603,352.399 77.326,352.369 76.944 C 352.283 75.823,352.207 75.686,352.186 76.615 M114.667 76.907 C 114.667 77.222,114.724 77.516,114.795 77.559 C 114.865 77.603,114.895 77.345,114.861 76.986 C 114.784 76.180,114.667 76.132,114.667 76.907 M33.544 77.120 C 33.797 77.158,34.172 77.157,34.377 77.117 C 34.582 77.078,34.375 77.046,33.917 77.048 C 33.458 77.049,33.291 77.081,33.544 77.120 M49.211 77.120 C 49.464 77.158,49.839 77.157,50.044 77.117 C 50.249 77.078,50.042 77.046,49.583 77.048 C 49.125 77.049,48.957 77.081,49.211 77.120 M248.876 89.333 C 248.951 89.608,256.423 89.810,256.689 89.545 C 256.759 89.474,255.083 89.438,252.964 89.464 C 249.969 89.502,249.077 89.464,248.959 89.298 C 248.843 89.134,248.824 89.142,248.876 89.333 " stroke="none" fill="#a1ca5c" fill-rule="evenodd"></path></g></svg>